<?xml version="1.0" encoding="UTF-8" standalone="no"?>
<svg width="479px" height="424px" viewBox="0 0 479 424" version="1.1" xmlns="http://www.w3.org/2000/svg" xmlns:xlink="http://www.w3.org/1999/xlink">
    <!-- Generator: Sketch 40.3 (33839) - http://www.bohemiancoding.com/sketch -->
    <title>Group 10</title>
    <desc>Created with Sketch.</desc>
    <defs>
        <filter x="-50%" y="-50%" width="200%" height="200%" filterUnits="objectBoundingBox" id="filter-1">
            <feOffset dx="0" dy="5" in="SourceAlpha" result="shadowOffsetOuter1"></feOffset>
            <feGaussianBlur stdDeviation="2.5" in="shadowOffsetOuter1" result="shadowBlurOuter1"></feGaussianBlur>
            <feColorMatrix values="0 0 0 0 0   0 0 0 0 0   0 0 0 0 0  0 0 0 0.2 0" type="matrix" in="shadowBlurOuter1" result="shadowMatrixOuter1"></feColorMatrix>
            <feMerge>
                <feMergeNode in="shadowMatrixOuter1"></feMergeNode>
                <feMergeNode in="SourceGraphic"></feMergeNode>
            </feMerge>
        </filter>
        <polygon id="path-2" points="234.34373 413.920603 468.687333 413.920603 468.687333 0.827841205 234.34373 0.827841205 0.000126075269 0.827841205 0.000126075269 413.920603"></polygon>
    </defs>
    <g id="Desktop" stroke="none" stroke-width="1" fill="none" fill-rule="evenodd">
        <g id="MacBook-Pro-13&quot;" transform="translate(-1040.000000, -604.000000)">
            <g id="Section-1">
                <g id="Group-10" transform="translate(1045.000000, 604.000000)">
                    <g id="Logo" filter="url(#filter-1)">
                        <g id="Group-3" transform="translate(0.000000, 0.013461)">
                            <mask id="mask-3" fill="white">
                                <use xlink:href="#path-2"></use>
                            </mask>
                            <g id="Clip-2"></g>
                            <path d="M128.581141,413.920603 C121.22591,413.920603 112.19892,408.703689 108.520885,402.328302 L2.75802258,218.966523 C-0.91917276,212.590295 -0.91917276,202.157308 2.75802258,195.78108 L108.520885,12.420142 C112.19892,6.04475514 121.22591,0.827841205 128.581141,0.827841205 L340.106865,0.827841205 C347.462096,0.827841205 356.489085,6.04475514 360.167121,12.420142 L465.929983,195.78108 C469.607178,202.157308 469.607178,212.590295 465.929983,218.966523 L360.166281,402.328302 C356.489085,408.703689 347.462096,413.920603 340.106865,413.920603 L128.581141,413.920603 Z" id="Fill-1" fill="#FFFFFF" mask="url(#mask-3)"></path>
                        </g>
                        <path d="M177.335204,155.953421 C180.267715,155.953421 182.779134,156.468298 184.871143,157.498893 C186.961471,158.530329 188.676935,159.889032 190.019216,161.575842 C191.360657,163.261812 192.343204,165.19933 192.968537,167.385033 C193.591349,169.571577 193.904016,171.821218 193.904016,174.131434 L193.904016,199.717953 C193.904016,201.106101 192.769338,202.241859 191.38251,202.241859 L185.192215,202.241859 C183.805387,202.241859 182.670709,201.106101 182.670709,199.717953 L182.670709,179.841351 C182.670709,178.453202 182.631206,176.181687 182.583297,174.795221 C182.583297,174.795221 182.577413,174.632009 182.389982,173.194223 C182.20339,171.758121 181.796587,170.462516 181.172935,169.305725 C180.548442,168.150618 179.69029,167.197422 178.598478,166.447822 C177.506666,165.698222 176.05512,165.323843 174.245519,165.323843 C172.498116,165.323843 171.000342,165.698222 169.752197,166.447822 C168.503211,167.197422 167.473596,168.166602 166.663353,169.352838 C165.851428,170.539915 165.258874,171.868331 164.884851,173.334721 C164.509987,174.803634 164.323396,176.255722 164.323396,177.691824 L164.323396,199.717953 C164.323396,201.106101 163.187878,202.241859 161.80189,202.241859 L155.610754,202.241859 C154.223926,202.241859 153.089249,201.106101 153.089249,199.717953 L153.089249,177.59255 C153.089249,176.204402 152.942161,173.942141 152.762293,172.565771 C152.762293,172.565771 152.417688,169.930813 151.076247,168.08752 C149.733965,166.24591 147.627668,165.323843 144.758195,165.323843 C143.072989,165.323843 141.605473,165.683079 140.358168,166.400709 C139.109182,167.120023 138.094697,168.040407 137.315551,169.165228 C136.534725,170.290049 135.942172,171.587337 135.53705,173.053726 C135.130247,174.522639 134.928526,176.005014 134.928526,177.505055 L134.928526,199.717953 C134.928526,201.106101 133.793849,202.241859 132.407021,202.241859 L126.216725,202.241859 C124.829897,202.241859 123.69522,201.106101 123.69522,199.717953 L123.69522,159.788917 C123.69522,158.400768 124.829897,157.265011 126.216725,157.265011 L131.845566,157.265011 C133.232394,157.265011 134.367071,158.400768 134.367071,159.788917 L134.367071,161.956111 C134.367071,163.344259 134.409096,164.480017 134.460367,164.480017 C134.511637,164.480017 135.080657,163.496535 135.724482,162.294314 L136.566664,161.294006 C137.409688,160.296222 138.407363,159.389298 139.562213,158.576601 C140.716222,157.765585 142.043374,157.124513 143.540308,156.655908 C145.038922,156.187303 146.691349,155.953421 148.50263,155.953421 C151.996596,155.953421 154.898849,156.73499 157.208548,158.295606 C159.516566,159.857904 161.295068,161.919093 162.544053,164.480017 C164.041827,161.732324 166.03886,159.624022 168.53515,158.155108 C171.0306,156.688719 173.964792,155.953421 177.335204,155.953421" id="Fill-4" fill="#007EE5"></path>
                        <path d="M233.879037,183.314161 C233.879037,182.437525 233.310018,181.720735 232.614923,181.720735 C231.919828,181.720735 230.216971,181.745133 228.830143,181.774579 C228.830143,181.774579 227.637471,181.800659 225.641279,181.955459 C223.643406,182.111941 221.802708,182.456033 220.117501,182.986054 C218.433136,183.517757 217.028657,184.267357 215.905747,185.234854 C214.781996,186.204034 214.220541,187.530767 214.220541,189.217578 C214.220541,190.280142 214.4542,191.17024 214.92236,191.887871 C215.390519,192.606343 215.999043,193.185158 216.74793,193.620953 C217.496817,194.05843 218.339,194.371394 219.275319,194.558163 C220.211638,194.745774 221.147957,194.839158 222.083435,194.839158 C225.952265,194.839158 228.885616,193.808563 230.883489,191.747373 C232.880521,189.686183 233.879037,186.874552 233.879037,183.314161 L233.879037,183.314161 Z M234.066469,199.049875 C234.066469,197.661726 234.002591,196.525969 233.926105,196.525969 C233.848779,196.525969 233.072996,197.410177 232.202236,198.490409 C232.202236,198.490409 230.850709,200.165441 228.3561,201.445062 C225.858969,202.724682 223.019754,203.365754 219.836774,203.365754 C218.026333,203.365754 216.139406,203.131872 214.173473,202.663267 C212.207539,202.194662 210.397098,201.414775 208.743831,200.321082 C207.089724,199.229072 205.716344,197.791287 204.625372,196.010251 C203.53272,194.230055 202.987234,192.028368 202.987234,189.404347 C202.987234,186.031567 203.937001,183.346131 205.842419,181.346356 C207.745315,179.348264 210.195378,177.817935 213.190926,176.755371 C216.186475,175.693648 219.508978,174.990319 223.160118,174.647068 C226.811258,174.304658 230.38339,174.13135 233.879037,174.13135 C233.879037,173.512993 233.647899,171.895169 233.365491,170.536466 C233.365491,170.536466 232.863711,168.119405 230.836421,166.775846 C228.807449,165.433128 226.390166,164.760928 223.58205,164.760928 C221.209313,164.760928 218.931553,165.261502 216.74793,166.260128 C214.562625,167.260436 212.753025,168.478641 211.318288,169.914744 L207.146878,164.998175 C206.249222,163.939817 206.420684,162.39098 207.528466,161.555567 C207.528466,161.555567 211.021591,158.920609 214.360905,157.733532 C217.698537,156.548137 221.084919,155.953337 224.517528,155.953337 C228.510752,155.953337 231.802998,156.515326 234.393424,157.639306 C236.98217,158.764127 239.027951,160.232199 240.525725,162.043522 C242.0235,163.856528 243.068243,165.885748 243.661638,168.134549 C244.254191,170.383349 244.550889,172.63215 244.550889,174.88095 L244.550889,199.717869 C244.550889,201.106017 243.417052,202.241775 242.029383,202.241775 L236.587975,202.241775 C235.201147,202.241775 234.066469,201.106017 234.066469,199.717869 L234.066469,199.049875 Z" id="Fill-6" fill="#007EE5"></path>
                        <path d="M256.162169,133.927124 C256.162169,132.538975 257.296846,131.403218 258.683674,131.403218 L264.87397,131.403218 C266.261638,131.403218 267.395475,132.538975 267.395475,133.927124 L267.395475,173.66855 C267.395475,175.056698 267.458513,176.192456 267.535839,176.192456 C267.613165,176.192456 268.436016,175.34863 269.36393,174.317193 L283.026287,159.140105 C283.954201,158.108668 285.847851,157.264842 287.23552,157.264842 L296.608796,157.264842 C297.995624,157.264842 298.345273,158.085112 297.38542,159.087103 L281.403278,175.776852 C280.444265,176.778843 280.387952,178.468178 281.280565,179.530742 L298.725179,200.30922 C299.616952,201.371784 299.21267,202.241691 297.825002,202.241691 L287.983566,202.241691 C286.596739,202.241691 284.768647,201.34318 283.920581,200.24444 L269.217683,181.188948 C268.369617,180.090208 267.613165,179.190856 267.535839,179.190856 C267.458513,179.190856 267.395475,180.326614 267.395475,181.714762 L267.395475,199.717785 C267.395475,201.105933 266.261638,202.241691 264.87397,202.241691 L258.683674,202.241691 C257.296846,202.241691 256.162169,201.105933 256.162169,199.717785 L256.162169,133.927124 Z" id="Fill-8" fill="#007EE5"></path>
                        <path d="M334.245121,175.255666 C335.631949,175.255666 336.684258,174.122432 336.584238,172.73849 C336.584238,172.73849 336.563225,172.444876 336.157263,171.133286 C335.751301,169.820855 335.111679,168.665747 334.238397,167.66628 C333.364275,166.667655 332.257335,165.870942 330.915053,165.276982 C329.571931,164.683864 327.996831,164.386885 326.188071,164.386885 C322.817659,164.386885 319.963315,165.402336 317.622517,167.431557 C315.28172,169.46246 313.985666,172.069655 313.737718,175.255666 L334.245121,175.255666 Z M347.999933,180.316098 L347.999933,181.814456 C347.999933,182.315873 347.967154,182.814765 347.905797,183.314498 L316.259223,183.314498 C314.871555,183.314498 313.933555,184.432588 314.173939,185.799704 C314.173939,185.799704 314.283204,186.422268 315.000992,187.764986 C315.71794,189.108545 316.670229,190.263653 317.856177,191.231992 C319.041284,192.201171 320.384406,192.965074 321.88218,193.527905 C323.379114,194.089895 324.939085,194.370889 326.562094,194.370889 C329.371051,194.370889 331.741266,193.855171 333.676942,192.824576 C335.610937,191.793981 337.202847,190.373863 338.450992,188.560858 L343.970568,192.9819 C345.053974,193.849282 345.065741,195.282861 343.997464,196.167069 C343.997464,196.167069 337.959299,203.553701 326.656231,203.553701 C323.160584,203.553701 319.946505,203.006014 317.013994,201.914003 C314.079802,200.821993 311.537284,199.27568 309.384759,197.275905 C307.231394,195.276972 305.546188,192.824576 304.329141,189.920402 C303.112935,187.015386 302.503571,183.721688 302.503571,180.034261 C302.503571,176.412456 303.112935,173.117076 304.329141,170.148962 C305.546188,167.182531 307.215424,164.652736 309.337691,162.559577 C311.459118,160.467259 313.971378,158.843546 316.87363,157.686755 C319.775042,156.531648 322.911795,155.953673 326.281367,155.953673 C329.401309,155.953673 332.287593,156.46855 334.941057,157.499145 C337.591999,158.52974 339.886569,160.06091 341.821404,162.090972 C343.754559,164.121033 345.268302,166.650829 346.361795,169.680357 C347.452766,172.711568 347.999933,176.255133 347.999933,180.316098 L347.999933,180.316098 Z" id="Fill-10" fill="#007EE5"></path>
                        <path d="M151.404379,250.243272 C151.404379,249.367477 150.835359,248.650687 150.141104,248.650687 C149.445169,248.650687 147.742312,248.675085 146.355484,248.704531 C146.355484,248.704531 145.162812,248.72977 143.166621,248.884569 C141.168748,249.041893 139.328049,249.385144 137.642843,249.916006 C135.958477,250.446867 134.553999,251.196467 133.431088,252.163965 C132.307337,253.133986 131.745882,254.459878 131.745882,256.14753 C131.745882,257.210094 131.979542,258.099351 132.447701,258.816981 C132.915861,259.535453 133.524384,260.113428 134.273271,260.550905 C135.022158,260.98754 135.864341,261.300505 136.80066,261.487274 C137.736979,261.674884 138.673298,261.768269 139.608777,261.768269 C143.477606,261.768269 146.410958,260.738515 148.40883,258.675642 C150.405863,256.615294 151.404379,253.803662 151.404379,250.243272 L151.404379,250.243272 Z M151.591811,265.979827 C151.591811,264.591678 151.527932,263.455921 151.451447,263.455921 C151.374121,263.455921 150.598337,264.340129 149.726737,265.420361 C149.726737,265.420361 148.376051,267.095393 145.881441,268.375855 C143.384311,269.653793 140.545096,270.296547 137.362115,270.296547 C135.551674,270.296547 133.664748,270.061824 131.698814,269.593219 C129.73288,269.124614 127.92244,268.344727 126.269173,267.250193 C124.615065,266.159024 123.241685,264.721239 122.150714,262.940202 C121.058061,261.160849 120.512576,258.95832 120.512576,256.334299 C120.512576,252.960678 121.462343,250.276083 123.36776,248.276308 C125.270656,246.276533 127.720719,244.747046 130.716268,243.68364 C133.711816,242.621917 137.03432,241.920271 140.685459,241.575337 C144.336599,241.233769 147.908732,241.061302 151.404379,241.061302 C151.404379,240.442945 151.173241,238.825121 150.890832,237.465577 C150.890832,237.465577 150.389053,235.048516 148.361762,233.704957 C146.332791,232.362239 143.915508,231.690038 141.107391,231.690038 C138.734655,231.690038 136.456895,232.191454 134.273271,233.19008 C132.087966,234.189547 130.278366,235.407752 128.84363,236.843855 L124.672219,231.927285 C123.774563,230.87061 123.946026,229.320932 125.053807,228.485519 C125.053807,228.485519 127.798886,225.952358 131.886246,224.662642 C135.263382,223.596713 138.61026,222.883289 142.04287,222.883289 C146.036094,222.883289 149.328339,223.444437 151.918766,224.568416 C154.508352,225.694079 156.552452,227.161309 158.051067,228.973474 C159.548841,230.785639 160.592744,232.814859 161.186979,235.063659 C161.779533,237.313301 162.07623,239.56126 162.07623,241.810902 L162.07623,266.646979 C162.07623,268.035128 160.941553,269.170885 159.554725,269.170885 L154.113316,269.170885 C152.726488,269.170885 151.591811,268.035128 151.591811,266.646979 L151.591811,265.979827 Z" id="Fill-12" fill="#007EE5"></path>
                        <path d="M211.31728,246.495272 C211.31728,244.747046 211.050841,243.013122 210.521324,241.294342 C209.990127,239.577245 209.195013,238.030932 208.134299,236.657085 C207.072746,235.284081 205.731305,234.173562 204.109136,233.330577 C202.485287,232.487593 200.582391,232.065259 198.398767,232.065259 C196.339538,232.065259 194.497998,232.503577 192.87583,233.37769 C191.25198,234.252644 189.864312,235.377465 188.710303,236.75047 C187.554613,238.125158 186.680491,239.687455 186.088778,241.435681 C185.494543,243.185589 185.199527,244.934656 185.199527,246.682882 C185.199527,248.43279 185.494543,250.165872 186.088778,251.88297 C186.680491,253.60175 187.554613,255.148063 188.710303,256.521909 C189.864312,257.897438 191.25198,259.004592 192.87583,259.847576 C194.497998,260.690561 196.339538,261.112894 198.398767,261.112894 C200.582391,261.112894 202.485287,260.6771 204.109136,259.801305 C205.731305,258.927192 207.072746,257.803212 208.134299,256.428525 C209.195013,255.054678 209.990127,253.491539 210.521324,251.743314 C211.050841,249.995088 211.31728,248.24518 211.31728,246.495272 L211.31728,246.495272 Z M182.583885,224.194037 C183.970713,224.194037 185.105391,225.329795 185.105391,226.717943 L185.105391,227.948768 C185.105391,229.336916 185.169269,230.472674 185.245754,230.472674 C185.323081,230.472674 185.968586,229.678485 186.680491,228.707623 L187.586552,227.802382 C188.490091,226.897141 189.599554,226.084443 190.909896,225.365971 C192.220238,224.64834 193.702043,224.054381 195.356151,223.585776 C197.009418,223.11717 198.866927,222.883289 200.926156,222.883289 C204.109136,222.883289 207.041647,223.49155 209.725369,224.709755 C212.408251,225.927961 214.71795,227.600469 216.652785,229.723074 C218.58678,231.847362 220.084554,234.34687 221.146108,237.219917 C222.206821,240.093804 222.738018,243.185589 222.738018,246.495272 C222.738018,249.808319 222.22279,252.913565 221.193176,255.818581 C220.163561,258.723597 218.696045,261.254233 216.793989,263.408808 C214.889412,265.564224 212.580554,267.283004 209.865733,268.562624 C207.150912,269.841403 204.077197,270.484158 200.645428,270.484158 C197.462448,270.484158 194.544226,269.82626 191.892443,268.515511 C189.238978,267.203921 187.195719,265.422885 185.760982,263.174926 C185.6576,263.174926 185.57355,264.310683 185.57355,265.698832 L185.57355,289.135824 C185.57355,290.523972 184.438873,291.65973 183.052045,291.65973 L176.861749,291.65973 C175.474921,291.65973 174.340244,290.523972 174.340244,289.135824 L174.340244,226.717943 C174.340244,225.329795 175.474921,224.194037 176.861749,224.194037 L182.583885,224.194037 Z" id="Fill-14" fill="#007EE5"></path>
                        <path d="M269.733331,246.495272 C269.733331,244.747046 269.467732,243.013122 268.938216,241.294342 C268.407019,239.577245 267.611064,238.030932 266.550351,236.657085 C265.488797,235.284081 264.147356,234.173562 262.525187,233.330577 C260.901338,232.487593 258.999282,232.065259 256.815659,232.065259 C254.755589,232.065259 252.914049,232.503577 251.291881,233.37769 C249.668032,234.252644 248.281204,235.377465 247.127195,236.75047 C245.971505,238.125158 245.097383,239.687455 244.504829,241.435681 C243.910594,243.185589 243.615578,244.934656 243.615578,246.682882 C243.615578,248.43279 243.910594,250.165872 244.504829,251.88297 C245.097383,253.60175 245.971505,255.148063 247.127195,256.521909 C248.281204,257.897438 249.668032,259.004592 251.291881,259.847576 C252.914049,260.690561 254.755589,261.112894 256.815659,261.112894 C258.999282,261.112894 260.901338,260.6771 262.525187,259.801305 C264.147356,258.927192 265.488797,257.803212 266.550351,256.428525 C267.611064,255.054678 268.407019,253.491539 268.938216,251.743314 C269.467732,249.995088 269.733331,248.24518 269.733331,246.495272 L269.733331,246.495272 Z M240.999937,224.194037 C242.387605,224.194037 243.521442,225.329795 243.521442,226.717943 L243.521442,227.948768 C243.521442,229.336916 243.58532,230.472674 243.661806,230.472674 C243.739132,230.472674 244.385478,229.678485 245.097383,228.707623 L246.002603,227.802382 C246.906983,226.897141 248.015605,226.084443 249.326788,225.365971 C250.63629,224.64834 252.118935,224.054381 253.773042,223.585776 C255.425469,223.11717 257.282978,222.883289 259.343048,222.883289 C262.525187,222.883289 265.458539,223.49155 268.142261,224.709755 C270.825143,225.927961 273.134842,227.600469 275.069677,229.723074 C277.002831,231.847362 278.501446,234.34687 279.562999,237.219917 C280.623713,240.093804 281.154069,243.185589 281.154069,246.495272 C281.154069,249.808319 280.639682,252.913565 279.610067,255.818581 C278.579612,258.723597 277.112096,261.254233 275.210041,263.408808 C273.305463,265.564224 270.997446,267.283004 268.281784,268.562624 C265.567804,269.841403 262.494089,270.484158 259.06148,270.484158 C255.87934,270.484158 252.961118,269.82626 250.309334,268.515511 C247.65503,267.203921 245.61261,265.422885 244.177033,263.174926 C244.074492,263.174926 243.989601,264.310683 243.989601,265.698832 L243.989601,289.135824 C243.989601,290.523972 242.854924,291.65973 241.468096,291.65973 L235.2778,291.65973 C233.890972,291.65973 232.756295,290.523972 232.756295,289.135824 L232.756295,226.717943 C232.756295,225.329795 233.890972,224.194037 235.2778,224.194037 L240.999937,224.194037 Z" id="Fill-16" fill="#007EE5"></path>
                        <path d="M318.521854,234.516561 C317.482994,235.436104 315.843175,235.373006 314.878279,234.376063 C314.878279,234.376063 314.26051,233.737515 312.514788,232.768335 C310.765704,231.799996 308.863648,231.315406 306.804419,231.315406 C304.992297,231.315406 303.340711,231.690627 301.842096,232.440227 C300.344322,233.190669 299.595435,234.440002 299.595435,236.188228 C299.595435,237.937295 300.422489,239.171485 302.076596,239.889957 C303.729023,240.607587 306.147987,241.342044 309.330967,242.091644 C311.016173,242.466024 312.715668,242.96744 314.433654,243.590003 C316.149118,244.215932 317.709089,245.042932 319.113568,246.074368 C320.518046,247.104963 321.656085,248.384584 322.531048,249.916595 C323.404329,251.447764 323.84139,253.304518 323.84139,255.491903 C323.84139,258.240437 323.326163,260.567478 322.296548,262.472186 C321.266933,264.377735 319.893553,265.924048 318.178089,267.110284 C316.460103,268.29652 314.463912,269.156331 312.186152,269.687192 C309.907551,270.216371 307.552465,270.483905 305.119213,270.483905 C301.623566,270.483905 298.222055,269.841151 294.91468,268.563213 C291.606465,267.282751 288.860546,265.455443 286.676922,263.081289 L292.232639,257.872788 C293.244603,256.923799 294.861729,256.96334 295.825784,257.960283 C295.825784,257.960283 296.941971,259.11455 298.939844,260.176273 C300.936876,261.239679 303.153279,261.768858 305.586532,261.768858 C306.396775,261.768858 307.22551,261.674632 308.067693,261.487863 C308.909876,261.300252 309.689021,261.004114 310.40765,260.596924 C311.124598,260.193099 311.702863,259.645411 312.139084,258.958909 C312.575304,258.271565 312.795516,257.426898 312.795516,256.428272 C312.795516,254.55301 311.936523,253.211133 310.220218,252.399277 C308.503073,251.58742 305.929456,250.775564 302.497688,249.962025 C300.812482,249.587645 299.173503,249.104738 297.583274,248.509938 C295.991363,247.91682 294.570915,247.136091 293.323611,246.168594 C292.073784,245.200255 291.076949,243.998035 290.328062,242.560249 C289.578335,241.124147 289.204311,239.34311 289.204311,237.219664 C289.204311,234.721838 289.718698,232.566423 290.749154,230.753417 C291.778768,228.942935 293.136179,227.458878 294.821385,226.302088 C296.506591,225.14698 298.408646,224.288011 300.531754,223.726021 C302.65234,223.164031 304.837645,222.883036 307.085146,222.883036 C310.328643,222.883036 313.496494,223.445026 316.586179,224.569005 C319.675023,225.694668 322.124245,227.413448 323.934686,229.723663 L318.521854,234.516561 Z" id="Fill-18" fill="#007EE5"></path>
                        <path d="M333.197772,262.611422 C333.197772,260.613329 333.929849,258.896232 335.397365,257.458447 C336.86236,256.022344 338.626573,255.303872 340.686643,255.303872 C342.682835,255.303872 344.431078,255.991216 345.928012,257.365062 C347.426627,258.73975 348.175514,260.425719 348.175514,262.423811 C348.175514,264.425269 347.440915,266.142366 345.97508,267.578469 C344.508405,269.016254 342.745872,269.733043 340.686643,269.733043 C339.687286,269.733043 338.734998,269.545433 337.831458,269.171054 C336.926238,268.796674 336.129442,268.296941 335.444433,267.672695 C334.756062,267.047607 334.210577,266.298848 333.806295,265.423053 C333.398652,264.54894 333.197772,263.61173 333.197772,262.611422" id="Fill-20" fill="#007EE5"></path>
                    </g>
                </g>
            </g>
        </g>
    </g>
</svg>