<?xml version="1.0" encoding="UTF-8" standalone="no"?>
<svg width="477px" height="419px" viewBox="0 0 477 419" version="1.1" xmlns="http://www.w3.org/2000/svg" xmlns:xlink="http://www.w3.org/1999/xlink">
    <!-- Generator: Sketch 40.3 (33839) - http://www.bohemiancoding.com/sketch -->
    <title>MakeBots </title>
    <desc>Created with Sketch.</desc>
    <defs>
        <filter x="-50%" y="-50%" width="200%" height="200%" filterUnits="objectBoundingBox" id="filter-1">
            <feOffset dx="0" dy="5" in="SourceAlpha" result="shadowOffsetOuter1"></feOffset>
            <feGaussianBlur stdDeviation="2.5" in="shadowOffsetOuter1" result="shadowBlurOuter1"></feGaussianBlur>
            <feColorMatrix values="0 0 0 0 0   0 0 0 0 0   0 0 0 0 0  0 0 0 0.2 0" type="matrix" in="shadowBlurOuter1" result="shadowMatrixOuter1"></feColorMatrix>
            <feMerge>
                <feMergeNode in="shadowMatrixOuter1"></feMergeNode>
                <feMergeNode in="SourceGraphic"></feMergeNode>
            </feMerge>
        </filter>
        <polygon id="path-2" points="0 408.895179 466.777389 408.895179 466.777389 0.817790358 0 0.817790358"></polygon>
    </defs>
    <g id="Desktop" stroke="none" stroke-width="1" fill="none" fill-rule="evenodd">
        <g id="MacBook-Pro-13&quot;-Copy" transform="translate(-1040.000000, -611.000000)">
            <g id="Section-1" transform="translate(0.000000, -230.000000)">
                <g id="MakeBots-" transform="translate(1045.000000, 841.000000)">
                    <g id="Group-3" filter="url(#filter-1)" transform="translate(0.000000, 0.013297)">
                        <mask id="mask-3" fill="white">
                            <use xlink:href="#path-2"></use>
                        </mask>
                        <g id="Clip-2"></g>
                        <path d="M128.056931,408.895179 C120.731686,408.895179 111.741499,403.741604 108.078458,397.443621 L2.74677846,216.308043 C-0.91626248,210.01006 -0.91626248,199.703741 2.74677846,193.404926 L108.078458,12.2693486 C111.741499,5.97136557 120.731686,0.817790358 128.056931,0.817790358 L338.720291,0.817790358 C346.045535,0.817790358 355.035723,5.97136557 358.697927,12.2693486 L464.030443,193.404926 C467.693484,199.703741 467.693484,210.01006 464.030443,216.308043 L358.698764,397.443621 C355.035723,403.741604 346.045535,408.895179 338.720291,408.895179 L128.056931,408.895179 Z" id="Fill-1" fill="#00569C" mask="url(#mask-3)"></path>
                    </g>
                    <path d="M163.295871,252.183525 C163.295871,250.456525 163.030518,248.743653 162.50316,247.045741 C161.974129,245.349491 161.182256,243.821951 160.125867,242.464785 C159.067804,241.107619 157.732669,240.011414 156.117114,239.178664 C154.499885,238.345083 152.604746,237.928708 150.430025,237.928708 C148.379191,237.928708 146.544322,238.360874 144.929604,239.224374 C143.312375,240.088705 141.929527,241.199869 140.780223,242.557036 C139.630081,243.915033 138.759523,245.457532 138.169385,247.184532 C137.57841,248.913195 137.284597,250.641857 137.284597,252.368858 C137.284597,254.096689 137.57841,255.80873 138.169385,257.505811 C138.759523,259.203724 139.630081,260.731263 140.780223,262.087598 C141.929527,263.446427 143.312375,264.540969 144.929604,265.373719 C146.544322,266.206469 148.379191,266.623675 150.430025,266.623675 C152.604746,266.623675 154.499885,266.192341 156.117114,265.327178 C157.732669,264.463678 159.067804,263.352514 160.125867,261.995347 C161.182256,260.639012 161.974129,259.094851 162.50316,257.36702 C163.030518,255.640019 163.295871,253.911357 163.295871,252.183525 L163.295871,252.183525 Z M135.14587,204.605413 C136.527044,204.605413 137.657095,205.727382 137.657095,207.098676 L137.657095,233.306198 C137.657095,234.678324 137.719876,235.799461 137.796887,235.799461 C137.873898,235.799461 138.510075,235.119631 139.20987,234.288544 L140.081265,233.485713 C140.950986,232.683713 141.992307,231.943214 143.204392,231.263384 C144.41564,230.586048 145.82946,230.014259 147.445852,229.552174 C149.061407,229.088427 150.896276,228.857385 152.94711,228.857385 C156.117114,228.857385 159.037669,229.459093 161.71045,230.661677 C164.382394,231.865923 166.682677,233.517294 168.609624,235.614129 C170.534897,237.713456 172.027402,240.182618 173.084628,243.019952 C174.141016,245.858947 174.670048,248.913195 174.670048,252.183525 C174.670048,255.455518 174.156921,258.523894 173.131504,261.39364 C172.10525,264.262555 170.644553,266.762467 168.749415,268.891714 C166.852603,271.020129 164.553995,272.718042 161.850242,273.982126 C159.146489,275.246211 156.084468,275.880331 152.667527,275.880331 C149.497523,275.880331 146.528418,275.19967 143.763559,273.843335 C140.997025,272.486999 138.836534,270.511504 137.284597,267.919341 C137.181636,267.919341 137.097092,269.040478 137.097092,270.412604 L137.097092,272.09057 C137.097092,273.462696 135.967877,274.583834 134.585866,274.583834 L128.980811,274.583834 C127.5988,274.583834 126.469586,273.462696 126.469586,272.09057 L126.469586,207.098676 C126.469586,205.727382 127.5988,204.605413 128.980811,204.605413 L135.14587,204.605413 Z" id="Fill-4" fill="#FFFFFF"></path>
                    <path d="M192.573077,252.183525 C192.573077,253.911357 192.836755,255.640019 193.365787,257.36702 C193.893144,259.094851 194.685017,260.639012 195.74308,261.995347 C196.799469,263.352514 198.135441,264.463678 199.751833,265.327178 C201.367389,266.192341 203.295173,266.623675 205.531837,266.623675 C207.770176,266.623675 209.695449,266.192341 211.312679,265.327178 C212.928234,264.463678 214.264206,263.352514 215.322269,261.995347 C216.37782,260.639012 217.170531,259.094851 217.699562,257.36702 C218.226082,255.640019 218.491435,253.911357 218.491435,252.183525 C218.491435,250.456525 218.226082,248.743653 217.699562,247.045741 C217.170531,245.349491 216.37782,243.821951 215.322269,242.464785 C214.264206,241.107619 212.928234,240.011414 211.312679,239.178664 C209.695449,238.345083 207.770176,237.928708 205.531837,237.928708 C203.295173,237.928708 201.367389,238.345083 199.751833,239.178664 C198.135441,240.011414 196.799469,241.107619 195.74308,242.464785 C194.685017,243.821951 193.893144,245.349491 193.365787,247.045741 C192.836755,248.743653 192.573077,250.456525 192.573077,252.183525 M181.198899,252.183525 C181.198899,248.666362 181.835914,245.472492 183.109942,242.603577 C184.38397,239.733831 186.108345,237.28046 188.284741,235.244294 C190.460299,233.208129 193.040165,231.634049 196.022664,230.523716 C199.006837,229.412552 202.17684,228.857385 205.531837,228.857385 C208.888509,228.857385 212.058513,229.412552 215.041848,230.523716 C218.025184,231.634049 220.603376,233.208129 222.780608,235.244294 C224.95533,237.28046 226.679705,239.733831 227.95457,242.603577 C229.227761,245.472492 229.865613,248.666362 229.865613,252.183525 C229.865613,255.700689 229.227761,258.91035 227.95457,261.810015 C226.679705,264.711342 224.95533,267.194632 222.780608,269.261548 C220.603376,271.329294 218.025184,272.949084 215.041848,274.120918 C212.058513,275.292752 208.888509,275.880331 205.531837,275.880331 C202.17684,275.880331 199.006837,275.292752 196.022664,274.120918 C193.040165,272.949084 190.460299,271.329294 188.284741,269.261548 C186.108345,267.194632 184.38397,264.711342 183.109942,261.810015 C181.835914,258.91035 181.198899,255.700689 181.198899,252.183525" id="Fill-6" fill="#FFFFFF"></path>
                    <path d="M236.75742,239.039457 C235.376246,239.039457 234.246194,237.917488 234.246194,236.546193 L234.246194,232.64673 C234.246194,231.274604 235.376246,230.153466 236.75742,230.153466 L239.565807,230.153466 C240.947818,230.153466 242.077033,229.031498 242.077033,227.660203 L242.077033,219.779829 C242.077033,218.408534 243.207084,217.286566 244.588258,217.286566 L250.567486,217.286566 C251.94866,217.286566 253.078712,218.408534 253.078712,219.779829 L253.078712,227.660203 C253.078712,229.031498 254.208763,230.153466 255.589937,230.153466 L261.754996,230.153466 C263.137007,230.153466 264.266221,231.274604 264.266221,232.64673 L264.266221,236.546193 C264.266221,237.917488 263.137007,239.039457 261.754996,239.039457 L255.589937,239.039457 C254.208763,239.039457 253.078712,240.161425 253.078712,241.53272 L253.078712,257.18792 C253.078712,258.559215 253.189205,260.798165 253.323975,262.16198 C253.323975,262.16198 253.436143,263.291429 254.151005,264.587095 C254.86503,265.88276 256.466355,266.531009 258.952468,266.531009 C259.698302,266.531009 260.505242,266.453718 261.376638,266.299966 C262.246359,266.146215 263.022327,265.914342 263.707055,265.605177 L263.973245,271.815896 C264.03184,273.185529 263.101013,274.604195 261.903995,274.968212 L260.537051,275.185126 C259.16927,275.401209 257.86427,275.510081 256.621214,275.510081 C253.638715,275.510081 251.214545,275.092875 249.349542,274.260125 C247.484538,273.426544 246.007938,272.285461 244.921414,270.835212 C243.833216,269.385795 243.087382,267.719464 242.683912,265.836219 C242.278768,263.954637 242.077033,261.934262 242.077033,259.773434 L242.077033,241.53272 C242.077033,240.161425 240.947818,239.039457 239.565807,239.039457 L236.75742,239.039457 Z" id="Fill-8" fill="#FFFFFF"></path>
                    <path d="M302.963955,240.349417 C301.92933,241.257796 300.296197,241.195465 299.335234,240.210626 C299.335234,240.210626 298.719984,239.57983 296.981379,238.622417 C295.239425,237.666666 293.345124,237.187959 291.29429,237.187959 C289.489556,237.187959 287.844703,237.558625 286.352198,238.298293 C284.86053,239.039623 284.114696,240.274619 284.114696,242.000789 C284.114696,243.729451 284.938378,244.948657 286.585742,245.657575 C288.231432,246.367324 290.640534,247.092032 293.810538,247.832532 C295.488874,248.203197 297.182277,248.697694 298.892421,249.31353 C300.600892,249.931028 302.154503,250.748818 303.553256,251.766901 C304.952009,252.784983 306.085408,254.049899 306.956804,255.562479 C307.826525,257.075059 308.261804,258.9101 308.261804,261.070097 C308.261804,263.785261 307.748677,266.08405 306.72326,267.965633 C305.697843,269.848877 304.330062,271.375586 302.621591,272.547419 C300.911447,273.720084 298.922556,274.569456 296.654082,275.093041 C294.384772,275.616626 292.039287,275.880081 289.615954,275.880081 C286.134559,275.880081 282.746916,275.245961 279.453025,273.982708 C276.158297,272.717792 273.423572,270.91267 271.248851,268.56734 L276.781918,263.422076 C277.789756,262.484609 279.400289,262.52367 280.361251,263.508509 C280.361251,263.508509 281.47205,264.648761 283.461778,265.697594 C285.450668,266.748089 287.658036,267.271674 290.081368,267.271674 C290.888309,267.271674 291.713665,267.178592 292.552414,266.994091 C293.391163,266.808758 294.167969,266.516215 294.882831,266.113969 C295.596857,265.714216 296.172764,265.174009 296.607206,264.49501 C297.041648,263.816011 297.260962,262.98243 297.260962,261.995098 C297.260962,260.143435 296.405471,258.81785 294.696164,258.015019 C292.986019,257.21385 290.422895,256.411019 287.005117,255.608189 C285.326781,255.238355 283.694485,254.760479 282.110738,254.173731 C280.525318,253.587814 279.110661,252.816565 277.868442,251.859983 C276.623711,250.903401 275.63094,249.716607 274.885106,248.296278 C274.138435,246.876781 273.765936,245.118199 273.765936,243.019702 C273.765936,240.552203 274.278226,238.423787 275.30448,236.631962 C276.329897,234.843461 277.681774,233.378253 279.360109,232.235507 C281.038445,231.094424 282.932746,230.245883 285.047198,229.690717 C287.159139,229.134719 289.335534,228.857136 291.573873,228.857136 C294.804146,228.857136 297.959083,229.412302 301.036171,230.523467 C304.112422,231.634631 306.551659,233.332543 308.354719,235.61471 L302.963955,240.349417 Z" id="Fill-10" fill="#FFFFFF"></path>
                    <path d="M317.579288,268.104009 C317.579288,266.130175 318.30838,264.433925 319.769913,263.013596 C321.228935,261.594929 322.985956,260.884349 325.037627,260.884349 C327.025681,260.884349 328.766797,261.564179 330.257628,262.921345 C331.750133,264.278512 332.495967,265.944843 332.495967,267.918676 C332.495967,269.895003 331.764363,271.591253 330.304504,273.00992 C328.843808,274.430249 327.088461,275.139167 325.037627,275.139167 C324.042345,275.139167 323.093939,274.953834 322.194083,274.584 C321.292553,274.214166 320.499006,273.7205 319.816789,273.103002 C319.131225,272.486334 318.587963,271.746666 318.18533,270.881504 C317.779349,270.018004 317.579288,269.092172 317.579288,268.104009" id="Fill-12" fill="#FFFFFF"></path>
                    <path d="M179.832207,154.059985 C182.753599,154.059985 185.25478,154.568611 187.33826,155.587524 C189.419229,156.605607 191.127699,157.947814 192.465345,159.614145 C193.80048,161.280476 194.779858,163.19364 195.401805,165.352806 C196.022915,167.512803 196.334307,169.735131 196.334307,172.017298 L196.334307,197.29317 C196.334307,198.664465 195.203418,199.786434 193.823081,199.786434 L187.658023,199.786434 C186.276848,199.786434 185.146797,198.664465 185.146797,197.29317 L185.146797,177.657891 C185.146797,176.286596 185.107454,174.04349 185.058904,172.673027 C185.058904,172.673027 185.053045,172.511796 184.867214,171.091467 C184.680546,169.6728 184.276239,168.392925 183.654292,167.250179 C183.033182,166.109095 182.178528,165.167473 181.091168,164.427805 C180.00297,163.686475 178.558178,163.316641 176.755118,163.316641 C175.014839,163.316641 173.523171,163.686475 172.280952,164.427805 C171.036221,165.167473 170.011641,166.125717 169.203863,167.29672 C168.396086,168.469385 167.805948,169.780841 167.432612,171.230258 C167.060114,172.681338 166.874283,174.115795 166.874283,175.535293 L166.874283,197.29317 C166.874283,198.664465 165.743395,199.786434 164.363058,199.786434 L158.197162,199.786434 C156.815988,199.786434 155.685936,198.664465 155.685936,197.29317 L155.685936,175.436393 C155.685936,174.064268 155.539448,171.830304 155.360314,170.470644 C155.360314,170.470644 155.017113,167.867677 153.681141,166.047595 C152.344332,164.227513 150.245785,163.316641 147.38801,163.316641 C145.709675,163.316641 144.248141,163.671515 143.005922,164.380433 C141.762028,165.091013 140.752515,166.000223 139.976547,167.111387 C139.198067,168.222552 138.607929,169.503258 138.205296,170.952675 C137.800151,172.403754 137.599253,173.868131 137.599253,175.34996 L137.599253,197.29317 C137.599253,198.664465 136.468365,199.786434 135.088028,199.786434 L128.922969,199.786434 C127.540958,199.786434 126.411744,198.664465 126.411744,197.29317 L126.411744,157.848914 C126.411744,156.477619 127.540958,155.355651 128.922969,155.355651 L134.528862,155.355651 C135.909199,155.355651 137.040087,156.477619 137.040087,157.848914 L137.040087,159.989796 C137.040087,161.361091 137.081941,162.48306 137.133002,162.48306 C137.184064,162.48306 137.750764,161.512349 138.391126,160.323894 L139.230713,159.33573 C140.069462,158.35006 141.063907,157.454148 142.214049,156.651317 C143.363353,155.850148 144.685095,155.21769 146.175925,154.753943 C147.667593,154.291028 149.313283,154.059985 151.11718,154.059985 C154.597739,154.059985 157.488159,154.832897 159.788442,156.373733 C162.08705,157.917063 163.857464,159.95406 165.101358,162.48306 C166.593863,159.768727 168.582754,157.686021 171.068867,156.234942 C173.554143,154.785525 176.475535,154.059985 179.832207,154.059985" id="Fill-14" fill="#FFFFFF"></path>
                    <path d="M236.145936,181.088206 C236.145936,180.223043 235.579237,179.514957 234.886975,179.514957 C234.194714,179.514957 232.499637,179.539058 231.117626,179.568146 C231.117626,179.568146 229.929816,179.593079 227.940926,179.745999 C225.951198,179.901412 224.11884,180.240496 222.441342,180.764082 C220.762169,181.289329 219.364254,182.029828 218.245921,182.985579 C217.125915,183.943823 216.566748,185.253618 216.566748,186.92078 C216.566748,187.970444 216.801129,188.849734 217.266543,189.557821 C217.732794,190.268401 218.339674,190.839358 219.08467,191.270693 C219.830504,191.702028 220.669254,192.011192 221.601755,192.195694 C222.534257,192.381026 223.466759,192.473277 224.398424,192.473277 C228.251481,192.473277 231.172873,191.456026 233.163438,189.419029 C235.151491,187.382864 236.145936,184.605369 236.145936,181.088206 L236.145936,181.088206 Z M236.332604,196.633702 C236.332604,195.262408 236.268987,194.140439 236.192813,194.140439 C236.115802,194.140439 235.343181,195.013912 234.475972,196.080198 C234.475972,196.080198 233.129955,197.735725 230.645516,198.999809 C228.158565,200.263063 225.330925,200.897183 222.161759,200.897183 C220.358699,200.897183 218.478628,200.66614 216.521546,200.203224 C214.56279,199.740308 212.75973,198.96989 211.113204,197.888645 C209.46584,196.809893 208.098059,195.389564 207.010698,193.630982 C205.923338,191.872401 205.379239,189.696613 205.379239,187.105281 C205.379239,183.772619 206.325971,181.120618 208.22362,179.145123 C210.118758,177.170458 212.557995,175.658709 215.542168,174.609046 C218.525504,173.560213 221.834462,172.866255 225.470717,172.52634 C229.106971,172.188087 232.664541,172.017714 236.145936,172.017714 C236.145936,171.406864 235.916578,169.808683 235.635321,168.465645 C235.635321,168.465645 235.13475,166.07793 233.115724,164.750683 C231.095025,163.424266 228.687597,162.760227 225.890929,162.760227 C223.527865,162.760227 221.259392,163.255556 219.08467,164.242057 C216.909112,165.229389 215.106052,166.432804 213.677165,167.851471 L209.521924,162.994594 C208.628764,161.949917 208.799528,160.419884 209.902793,159.594614 C209.902793,159.594614 213.381677,156.991647 216.707377,155.818151 C220.031402,154.64798 223.403978,154.060401 226.822593,154.060401 C230.799537,154.060401 234.078361,154.614736 236.658227,155.725069 C239.236418,156.837065 241.273859,158.286482 242.765527,160.076645 C244.257195,161.866808 245.297679,163.871392 245.888654,166.092889 C246.478792,168.315218 246.77428,170.535884 246.77428,172.758213 L246.77428,197.292755 C246.77428,198.66405 245.645066,199.786018 244.263054,199.786018 L238.84383,199.786018 C237.462656,199.786018 236.332604,198.66405 236.332604,197.292755 L236.332604,196.633702 Z" id="Fill-16" fill="#FFFFFF"></path>
                    <path d="M258.338222,132.300695 C258.338222,130.930231 259.468274,129.807431 260.849448,129.807431 L267.014506,129.807431 C268.396517,129.807431 269.525732,130.930231 269.525732,132.300695 L269.525732,171.559618 C269.525732,172.931744 269.588513,174.052882 269.665523,174.052882 C269.742534,174.052882 270.562031,173.220132 271.486162,172.201218 L285.092819,157.208395 C286.01695,156.189481 287.90288,155.355069 289.284891,155.355069 L298.619954,155.355069 C300.001128,155.355069 300.349351,156.16538 299.393411,157.155205 L283.476427,173.642324 C282.521324,174.632981 282.46524,176.300974 283.354214,177.351469 L300.727709,197.876843 C301.615846,198.927338 301.213212,199.785852 299.831201,199.785852 L290.029888,199.785852 C288.648714,199.785852 286.828076,198.89825 285.983467,197.81285 L271.340511,178.989543 C270.495902,177.903311 269.742534,177.01571 269.665523,177.01571 C269.588513,177.01571 269.525732,178.136847 269.525732,179.508973 L269.525732,197.292589 C269.525732,198.664715 268.396517,199.785852 267.014506,199.785852 L260.849448,199.785852 C259.468274,199.785852 258.338222,198.664715 258.338222,197.292589 L258.338222,132.300695 Z" id="Fill-18" fill="#FFFFFF"></path>
                    <path d="M336.10284,173.127881 C337.484014,173.127881 338.532032,172.008406 338.43242,170.641266 C338.43242,170.641266 338.411494,170.350386 338.007186,169.055551 C337.602879,167.759054 336.965865,166.617971 336.096144,165.630638 C335.225585,164.643306 334.123157,163.857928 332.786348,163.270349 C331.448702,162.684432 329.880023,162.390227 328.078638,162.390227 C324.721966,162.390227 321.879259,163.394181 319.548005,165.398765 C317.21675,167.40418 315.92598,169.980552 315.679043,173.127881 L336.10284,173.127881 Z M349.801575,178.126874 L349.801575,179.607872 C349.801575,180.102369 349.768929,180.594373 349.707823,181.08804 L318.190269,181.08804 C316.808258,181.08804 315.874082,182.193386 316.113485,183.543904 C316.113485,183.543904 316.222305,184.158909 316.937167,185.485325 C317.651192,186.813403 318.599598,187.954487 319.780712,188.910238 C320.960988,189.868482 322.298634,190.623109 323.790302,191.178276 C325.281132,191.733443 326.834744,192.011026 328.451136,192.011026 C331.248641,192.011026 333.609193,191.501569 335.536977,190.483487 C337.463087,189.465404 339.048508,188.063359 340.291564,186.271534 L345.788637,190.6389 C346.867627,191.495752 346.879346,192.911925 345.815423,193.785398 C345.815423,193.785398 339.801875,201.082349 328.544889,201.082349 C325.063493,201.082349 321.862517,200.54048 318.941962,199.462559 C316.019733,198.383807 313.48758,196.856268 311.343831,194.880772 C309.199244,192.906939 307.520909,190.483487 306.308824,187.614572 C305.097576,184.745657 304.490696,181.491117 304.490696,177.848459 C304.490696,174.270627 305.097576,171.014425 306.308824,168.083178 C307.520909,165.152763 309.18334,162.652851 311.296955,160.585104 C313.409732,158.51902 315.91175,156.915021 318.802171,155.772275 C321.691754,154.631192 324.815719,154.060234 328.171553,154.060234 C331.278776,154.060234 334.153292,154.56886 336.795938,155.587774 C339.436074,156.605025 341.721289,158.117605 343.648236,160.12302 C345.573509,162.129266 347.081081,164.627515 348.170116,167.620262 C349.256639,170.614672 349.801575,174.115213 349.801575,178.126874 L349.801575,178.126874 Z" id="Fill-20" fill="#FFFFFF"></path>
                </g>
            </g>
        </g>
    </g>
</svg>