<?xml version="1.0" encoding="UTF-8" standalone="no"?>
<svg width="1200px" height="613px" viewBox="0 0 1200 613" version="1.1" xmlns="http://www.w3.org/2000/svg" xmlns:xlink="http://www.w3.org/1999/xlink">
    <!-- Generator: Sketch 40.3 (33839) - http://www.bohemiancoding.com/sketch -->
    <title>Logos</title>
    <desc>Created with Sketch.</desc>
    <defs>
        <polygon id="path-1" points="0 410.537328 468.651997 410.537328 468.651997 0.821074657 0 0.821074657"></polygon>
    </defs>
    <g id="Page-1" stroke="none" stroke-width="1" fill="none" fill-rule="evenodd">
        <g id="Logos" transform="translate(100.000000, 100.000000)">
            <g id="MakeApps_Logo_Final">
                <path d="M128.562638,412.650602 C121.168185,412.650602 112.177203,407.439943 108.479977,401.052683 L2.77291964,217.92322 C-0.924306545,211.535961 -0.924306545,201.114642 2.77291964,194.727382 L108.479977,11.5979192 C112.177203,5.21065934 121.168185,0 128.562638,0 L340.060781,0 C347.455233,0 356.446215,5.21065934 360.143441,11.5979192 L465.850499,194.727382 C469.547725,201.114642 469.547725,211.535961 465.850499,217.92322 L360.059413,401.052683 C356.362187,407.439943 347.371205,412.650602 339.976753,412.650602 L128.562638,412.650602 L128.562638,412.650602 Z" id="Shape" fill="#007EE5"></path>
                <g id="Group" transform="translate(120.159851, 130.266483)" fill="#FFFFFF">
                    <path d="M57.1389501,24.7086104 C60.0799254,24.7086104 62.6007615,25.2128678 64.7014582,26.2213825 C66.8021549,27.2298972 68.4827122,28.5745835 69.8271581,30.2554413 C71.171604,31.9362992 72.1799384,33.8692857 72.7681335,36.0544009 C73.3563285,38.2395161 73.69244,40.5086742 73.69244,42.7778323 L73.69244,68.3268716 C73.69244,69.6715579 72.5160499,70.8481584 71.171604,70.8481584 L64.9535418,70.8481584 C63.6090959,70.8481584 62.4327057,69.6715579 62.4327057,68.3268716 L62.4327057,48.492749 C62.4327057,47.1480627 62.4327057,44.8789046 62.3486779,43.4501754 C62.3486779,43.4501754 62.3486779,43.2820897 62.1806221,41.8533605 C62.0125664,40.4246313 61.5924271,39.1639879 61.004232,37.9873874 C60.4160369,36.8107869 59.4917304,35.8863151 58.3993681,35.1299291 C57.3070058,34.3735431 55.878532,34.0373715 54.029919,34.0373715 C52.2653337,34.0373715 50.7528321,34.3735431 49.576442,35.1299291 C48.316024,35.8863151 47.3076895,36.8107869 46.4674109,38.0714303 C45.6271322,39.2480308 45.0389371,40.5927171 44.7028256,42.0214463 C44.3667142,43.4501754 44.1146306,44.9629475 44.1146306,46.3916767 L44.1146306,68.4109145 C44.1146306,69.7556008 42.9382404,70.9322013 41.5937945,70.9322013 L35.3757323,70.9322013 C34.0312864,70.9322013 32.8548963,69.7556008 32.8548963,68.4109145 L32.8548963,46.3076338 C32.8548963,44.9629475 32.6868406,42.6937894 32.5187848,41.2650602 C32.5187848,41.2650602 32.1826733,38.6597306 30.8382275,36.8107869 C29.4937816,34.9618433 27.3930849,34.0373715 24.5361374,34.0373715 C22.85558,34.0373715 21.3430784,34.3735431 20.1666883,35.1299291 C18.9062702,35.8863151 17.8979358,36.726744 17.141685,37.9033445 C16.3854342,38.9959021 15.7972391,40.3405884 15.3770998,41.7693176 C14.9569605,43.1980468 14.7889047,44.7108188 14.7889047,46.2235909 L14.7889047,68.4109145 C14.7889047,69.7556008 13.6125146,70.9322013 12.2680687,70.9322013 L6.05000648,70.9322013 C4.70556059,70.9322013 3.52917045,69.7556008 3.52917045,68.4109145 L3.52917045,28.4905406 C3.52917045,27.1458543 4.70556059,25.9692538 6.05000648,25.9692538 L11.6798736,25.9692538 C13.0243195,25.9692538 14.2007096,27.1458543 14.2007096,28.4905406 L14.2007096,30.6756558 C14.2007096,32.0203421 14.2847375,33.1969426 14.2847375,33.1969426 C14.2847375,33.1969426 14.8729326,32.1884278 15.5451555,31.0118274 C15.5451555,31.0118274 15.5451555,31.0118274 16.3854342,30.0033126 C17.2257129,28.9947979 18.2340473,28.0703261 19.4104374,27.3139401 C20.5868276,26.4735112 21.9312735,25.8852109 23.3597472,25.3809535 C24.8722489,24.8766962 26.4687783,24.7086104 28.3173914,24.7086104 C31.8465619,24.7086104 34.7035094,25.4649964 37.0562897,27.0618114 C39.3250421,28.6586264 41.1736552,30.6756558 42.3500453,33.2809854 C43.862547,30.50757 45.8792158,28.4064977 48.316024,26.9777685 C50.83686,25.3809535 53.7778354,24.7086104 57.1389501,24.7086104 L57.1389501,24.7086104 Z" id="Shape"></path>
                    <path d="M113.857761,67.7385714 C113.857761,66.3938851 113.773733,65.2172846 113.689705,65.2172846 C113.605677,65.2172846 112.849426,66.1417564 111.92512,67.1502711 C111.92512,67.1502711 110.580674,68.831129 108.059838,70.0917724 C105.539002,71.3524158 102.766082,72.0247589 99.5730233,72.0247589 C97.7244102,72.0247589 95.8757971,71.7726302 93.9431561,71.3524158 C92.0105152,70.8481584 90.1619021,70.0917724 88.4813447,68.9992148 C86.8007874,67.9066572 85.4563415,66.477928 84.3639792,64.7130273 C83.2716169,62.9481265 82.7674497,60.7630113 82.7674497,58.0736388 C82.7674497,54.711923 83.6917563,52.0225505 85.6243972,50.0055211 C87.5570382,47.9884916 89.9938464,46.4757196 92.9348217,45.383162 C95.959825,44.2906044 99.2369118,43.6182612 102.934138,43.2820897 C106.547336,42.9459181 110.160535,42.7778323 113.689705,42.7778323 L113.689705,42.7778323 C113.689705,42.1895321 113.437621,40.5086742 113.185538,39.1639879 C113.185538,39.1639879 112.681371,36.726744 110.664702,35.3820578 C108.648033,34.0373715 106.211225,33.3650283 103.438305,33.3650283 C101.085525,33.3650283 98.8167725,33.8692857 96.6320479,34.8778004 C94.4473233,35.8863151 92.5987103,37.0629156 91.1702365,38.4916448 L86.9688431,33.617157 C86.0445366,32.5245994 86.2125923,31.0118274 87.3889825,30.1713984 C87.3889825,30.1713984 90.9181529,27.5660688 94.1952397,26.3894683 C97.5563545,25.2128678 100.917469,24.6245675 104.362612,24.6245675 C108.395949,24.6245675 111.673036,25.2128678 114.2779,26.3054254 C116.882764,27.397983 118.899433,28.910755 120.411934,30.6756558 C121.924436,32.5245994 122.932771,34.5416288 123.520966,36.726744 C124.109161,38.9959021 124.445272,41.1810173 124.445272,43.4501754 L124.445272,68.2428287 C124.445272,69.587515 123.268882,70.7641155 121.924436,70.7641155 L116.462625,70.7641155 C115.118179,70.7641155 113.941789,69.587515 113.941789,68.2428287 L113.857761,67.7385714 L113.857761,67.7385714 L113.857761,67.7385714 Z M113.689705,52.0225505 C113.689705,51.1821216 113.10151,50.4257355 112.429287,50.4257355 C111.757064,50.4257355 109.992479,50.4257355 108.648033,50.5097784 C108.648033,50.5097784 107.471643,50.5097784 105.454974,50.6778642 C103.438305,50.84595 101.589692,51.1821216 99.9091347,51.6863789 C98.2285774,52.1906363 96.8001036,52.9470223 95.7077414,53.955537 C94.6153791,54.9640517 94.027184,56.2246951 94.027184,57.905553 C94.027184,58.9981106 94.2792676,59.8385395 94.6994069,60.5949255 C95.2035742,61.3513116 95.7917692,61.8555689 96.54802,62.3598263 C97.3042708,62.7800407 98.1445495,63.1162123 99.0688561,63.2842981 C99.9931626,63.4523839 100.917469,63.5364268 101.841776,63.5364268 C105.707058,63.5364268 108.648033,62.5279121 110.664702,60.4268397 C112.681371,58.4098103 113.689705,55.552352 113.689705,52.0225505 L113.689705,52.0225505 L113.689705,52.0225505 Z" id="Shape"></path>
                    <path d="M135.95709,2.68937256 C135.95709,1.34468628 137.13348,0.168085785 138.477926,0.168085785 L144.695988,0.168085785 C146.040434,0.168085785 147.216824,1.34468628 147.216824,2.68937256 L147.216824,42.3576178 C147.216824,43.7023041 147.300852,44.8789046 147.38488,44.8789046 C147.468908,44.8789046 148.309187,44.0384757 149.233493,43.029961 L162.930036,27.9022403 C163.854342,26.8937256 165.786983,26.0532967 167.131429,26.0532967 L176.54255,26.0532967 C177.886996,26.0532967 178.307135,26.8937256 177.298801,27.9022403 L161.333506,44.5427331 C160.4092,45.5512478 160.325172,47.2321056 161.249478,48.3246632 L178.727275,69.0832577 C179.651581,70.1758153 179.231442,71.0162442 177.802968,71.0162442 L167.971708,71.0162442 C166.627262,71.0162442 164.778649,70.0917724 163.93837,68.9992148 L149.233493,50.0055211 C148.393214,48.9129635 147.636964,47.9884916 147.552936,47.9884916 C147.468908,47.9884916 147.38488,49.1650921 147.38488,50.5097784 L147.38488,68.4949574 C147.38488,69.8396437 146.20849,71.0162442 144.864044,71.0162442 L138.645982,71.0162442 C137.301536,71.0162442 136.125146,69.8396437 136.125146,68.4949574 L135.95709,2.68937256 L135.95709,2.68937256 L135.95709,2.68937256 Z" id="Shape"></path>
                    <path d="M227.715522,48.9970064 L227.715522,50.5097784 C227.715522,51.0140358 227.715522,51.5182931 227.631494,52.0225505 L195.952988,52.0225505 C194.608542,52.0225505 193.600207,53.1151081 193.852291,54.5438373 C193.852291,54.5438373 193.936319,55.1321375 194.69257,56.4768238 C195.44882,57.8215101 196.373127,58.9981106 197.549517,59.9225824 C198.725907,60.9310971 200.070353,61.6874831 201.582855,62.1917405 C203.095356,62.7800407 204.607858,63.0321694 206.288415,63.0321694 C209.061335,63.0321694 211.498143,62.5279121 213.430784,61.5193973 C215.363425,60.5108826 216.959955,59.0821535 218.220373,57.2332098 L223.766212,61.6874831 C224.858574,62.5279121 224.858574,63.9566412 223.766212,64.881113 C223.766212,64.881113 217.716205,72.2768876 206.456471,72.2768876 C202.927301,72.2768876 199.734242,71.6885873 196.793266,70.6800726 C193.852291,69.587515 191.331455,68.074743 189.14673,66.0577135 C186.962006,64.0406841 185.281448,61.6034402 184.105058,58.7459819 C182.928668,55.8044807 182.256445,52.5268078 182.256445,48.8289206 C182.256445,45.2150762 182.84464,41.9374034 184.105058,38.9118592 C185.281448,35.970358 186.962006,33.4490712 189.14673,31.3479989 C191.247427,29.2469266 193.768263,27.6501116 196.709238,26.4735112 C199.650214,25.2969107 202.759245,24.7086104 206.12036,24.7086104 C209.229391,24.7086104 212.086338,25.2128678 214.77523,26.2213825 C217.464122,27.2298972 219.732874,28.7426693 221.665515,30.8437416 C223.598156,32.860771 225.110658,35.3820578 226.20302,38.4076019 C227.211354,41.433146 227.715522,44.9629475 227.715522,48.9970064 L227.715522,48.9970064 Z M214.018979,43.9544328 C215.363425,43.9544328 216.455787,42.8618752 216.371759,41.433146 C216.371759,41.433146 216.371759,41.1810173 215.95162,39.8363311 C215.531481,38.4916448 214.943286,37.3990872 214.018979,36.3905725 C213.1787,35.3820578 212.00231,34.6256717 210.657864,34.0373715 C209.313419,33.4490712 207.716889,33.1128997 205.952304,33.1128997 C202.591189,33.1128997 199.734242,34.1214144 197.381461,36.1384438 C195.028681,38.1554732 193.768263,40.7608029 193.516179,43.9544328 L214.018979,43.9544328 L214.018979,43.9544328 L214.018979,43.9544328 Z" id="Shape"></path>
                    <path d="M31.4264225,134.636714 C31.4264225,133.292028 31.3423947,132.115427 31.2583668,132.115427 C31.1743389,132.115427 30.4180881,133.039899 29.4937816,134.048414 C29.4937816,134.048414 28.1493357,135.729271 25.6284997,136.989915 C23.1076636,138.250558 20.334744,138.922901 17.141685,138.922901 C15.2930719,138.922901 13.4444588,138.670773 11.5118179,138.250558 C9.57917692,137.830344 7.73056383,136.989915 6.05000648,135.897357 C4.36944912,134.8048 3.02500324,133.37607 1.93264096,131.61117 C0.840278677,129.846269 0.336111471,127.661154 0.336111471,124.971781 C0.336111471,121.610066 1.26041802,118.920693 3.19305897,116.903664 C5.12569993,114.886634 7.5625081,113.373862 10.5034835,112.281304 C13.5284867,111.188747 16.8055735,110.516404 20.5027997,110.180232 C24.115998,109.844061 27.7291964,109.675975 31.2583668,109.675975 L31.2583668,109.675975 C31.2583668,109.087675 31.0062832,107.406817 30.7541996,106.06213 C30.7541996,106.06213 30.2500324,103.624887 28.2333636,102.2802 C26.2166947,100.935514 23.7798866,100.263171 21.0069669,100.263171 C18.6541866,100.263171 16.3854342,100.767428 14.2007096,101.775943 C12.0159851,102.784458 10.167372,103.961058 8.73889825,105.389787 L4.53750486,100.515299 C3.61319831,99.4227419 3.78125405,97.9099698 4.9576442,97.0695409 C4.9576442,97.0695409 7.73056383,94.5482541 11.7639015,93.2876107 C15.1250162,92.1950531 18.4861309,91.52271 21.9312735,91.52271 C25.9646111,91.52271 29.241698,92.1110102 31.8465619,93.2035678 C34.4514258,94.2961254 36.4680946,95.8088975 37.9805962,97.5737982 C39.4930978,99.4227419 40.5014323,101.439771 41.0896273,103.624887 C41.6778224,105.894045 42.0139339,108.07916 42.0139339,110.348318 L42.0139339,135.140971 C42.0139339,136.485657 40.8375437,137.662258 39.4930978,137.662258 L34.0312864,137.662258 C32.6868406,137.662258 31.5104504,136.485657 31.5104504,135.140971 L31.4264225,134.636714 L31.4264225,134.636714 L31.4264225,134.636714 Z M31.1743389,118.83665 C31.1743389,117.996221 30.5861439,117.239835 29.9139209,117.239835 C29.241698,117.239835 27.4771128,117.239835 26.1326669,117.323878 C26.1326669,117.323878 24.9562767,117.323878 22.9396079,117.491964 C20.9229391,117.66005 19.074326,117.996221 17.3937686,118.500478 C15.7132113,119.004736 14.2847375,119.761122 13.1923752,120.769637 C12.100013,121.778151 11.5118179,123.038795 11.5118179,124.719653 C11.5118179,125.81221 11.7639015,126.652639 12.1840408,127.409025 C12.6041802,128.165411 13.2764031,128.669668 14.0326539,129.173926 C14.7889047,129.59414 15.6291834,129.930312 16.5534899,130.098398 C17.4777965,130.266483 18.402103,130.350526 19.3264096,130.350526 C23.1916915,130.350526 26.1326669,129.342012 28.1493357,127.240939 C30.1660045,125.22391 31.1743389,122.450494 31.1743389,118.83665 L31.1743389,118.83665 L31.1743389,118.83665 Z" id="Shape"></path>
                    <path d="M62.3486779,92.8673963 C63.6931237,92.8673963 64.8695139,94.0439968 64.8695139,95.388683 L64.8695139,96.6493264 C64.8695139,97.9940127 64.9535418,99.1706132 65.0375696,99.1706132 C65.1215975,99.1706132 65.7938204,98.4142272 66.4660434,97.4057125 C66.4660434,97.4057125 66.4660434,97.4057125 67.3903499,96.4812406 C68.3146565,95.5567688 69.4070188,94.8003828 70.7514646,94.0439968 C72.0959105,93.2876107 73.5243843,92.6993105 75.2049416,92.279096 C76.885499,91.7748387 78.7341121,91.6067529 80.7507809,91.6067529 C83.9438399,91.6067529 86.8848152,92.1950531 89.573707,93.4556965 C92.2625988,94.632297 94.5313512,96.3131549 96.4639922,98.4982701 C98.3966331,100.599342 99.9091347,103.120629 100.917469,105.978088 C102.009831,108.835546 102.513999,111.945133 102.513999,115.222806 C102.513999,118.500478 102.009831,121.610066 101.001497,124.551567 C99.9931626,127.493068 98.480661,130.014355 96.6320479,132.115427 C94.6994069,134.300542 92.4306545,135.9814 89.7417627,137.242044 C87.052871,138.502687 83.9438399,139.17503 80.4986973,139.17503 C77.3056383,139.17503 74.364663,138.502687 71.7597991,137.242044 C69.0709073,135.897357 67.0542385,134.132457 65.6257647,131.947341 L65.6257647,131.947341 C65.5417368,131.947341 65.457709,133.123942 65.457709,134.468628 L65.457709,157.916595 C65.457709,159.261281 64.2813188,160.437882 62.9368729,160.437882 L56.7188107,160.437882 C55.3743648,160.437882 54.1979747,159.261281 54.1979747,157.916595 L54.1979747,95.5567688 C54.1979747,94.2120825 55.3743648,93.0354821 56.7188107,93.0354821 L62.3486779,92.8673963 L62.3486779,92.8673963 L62.3486779,92.8673963 Z M91.0862086,115.138763 C91.0862086,113.373862 90.834125,111.693004 90.3299578,109.928103 C89.8257906,108.247246 88.9855119,106.650431 87.9771775,105.305744 C86.8848152,103.961058 85.5403694,102.784458 83.9438399,101.944029 C82.3473104,101.1036 80.4146694,100.683385 78.2299449,100.683385 C76.213276,100.683385 74.364663,101.1036 72.6841056,102.028072 C71.0875761,102.8685 69.6591024,104.045101 68.4827122,105.389787 C67.3063221,106.734474 66.4660434,108.331288 65.8778483,110.096189 C65.2896532,111.86109 64.9535418,113.625991 64.9535418,115.306849 C64.9535418,117.071749 65.2896532,118.752607 65.8778483,120.517508 C66.4660434,122.198366 67.3063221,123.795181 68.4827122,125.139867 C69.6591024,126.484553 71.0035482,127.661154 72.6841056,128.501583 C74.2806351,129.342012 76.1292482,129.762226 78.2299449,129.762226 C80.4146694,129.762226 82.3473104,129.342012 83.9438399,128.41754 C85.5403694,127.577111 86.8848152,126.40051 87.9771775,125.055824 C89.0695398,123.711138 89.8257906,122.114323 90.3299578,120.349422 C90.834125,118.668564 91.0862086,116.903664 91.0862086,115.138763 L91.0862086,115.138763 Z" id="Shape"></path>
                    <path d="M120.748046,92.8673963 C122.092492,92.8673963 123.268882,94.0439968 123.268882,95.388683 L123.268882,96.6493264 C123.268882,97.9940127 123.35291,99.1706132 123.436938,99.1706132 C123.520966,99.1706132 124.193189,98.4142272 124.865411,97.4057125 C124.865411,97.4057125 124.865411,97.4057125 125.789718,96.4812406 C126.714025,95.5567688 127.806387,94.8003828 129.150833,94.0439968 C130.495279,93.2876107 131.923752,92.6993105 133.60431,92.279096 C135.284867,91.7748387 137.13348,91.6067529 139.150149,91.6067529 C142.343208,91.6067529 145.284183,92.1950531 147.973075,93.4556965 C150.661967,94.632297 152.930719,96.3131549 154.86336,98.4982701 C156.796001,100.599342 158.308503,103.120629 159.316837,105.978088 C160.4092,108.835546 160.913367,111.945133 160.913367,115.222806 C160.913367,118.500478 160.4092,121.610066 159.400865,124.551567 C158.392531,127.493068 156.880029,130.014355 155.031416,132.115427 C153.098775,134.300542 150.830023,135.9814 148.141131,137.242044 C145.452239,138.502687 142.343208,139.17503 138.898065,139.17503 C135.705006,139.17503 132.764031,138.502687 130.159167,137.242044 C127.470275,135.897357 125.453607,134.132457 124.025133,131.947341 L124.025133,131.947341 C123.941105,131.947341 123.857077,133.123942 123.857077,134.468628 L123.857077,157.916595 C123.857077,159.261281 122.680687,160.437882 121.336241,160.437882 L115.118179,160.437882 C113.773733,160.437882 112.597343,159.261281 112.597343,157.916595 L112.597343,95.5567688 C112.597343,94.2120825 113.773733,93.0354821 115.118179,93.0354821 L120.748046,92.8673963 L120.748046,92.8673963 L120.748046,92.8673963 Z M149.485577,115.138763 C149.485577,113.373862 149.233493,111.693004 148.729326,109.928103 C148.225159,108.247246 147.38488,106.650431 146.376546,105.305744 C145.284183,103.961058 143.939737,102.784458 142.343208,101.944029 C140.746678,101.1036 138.814038,100.683385 136.629313,100.683385 C134.528616,100.683385 132.764031,101.1036 131.083474,102.028072 C129.486944,102.8685 128.05847,104.045101 126.88208,105.389787 C125.70569,106.734474 124.865411,108.331288 124.277216,110.096189 C123.689021,111.86109 123.35291,113.625991 123.35291,115.306849 C123.35291,117.071749 123.689021,118.752607 124.277216,120.517508 C124.865411,122.198366 125.70569,123.795181 126.88208,125.139867 C128.05847,126.484553 129.402916,127.661154 131.083474,128.501583 C132.680003,129.342012 134.528616,129.762226 136.629313,129.762226 C138.814038,129.762226 140.746678,129.342012 142.343208,128.41754 C143.939737,127.577111 145.284183,126.40051 146.376546,125.055824 C147.468908,123.711138 148.225159,122.114323 148.729326,120.349422 C149.233493,118.668564 149.485577,116.903664 149.485577,115.138763 L149.485577,115.138763 Z" id="Shape"></path>
                    <path d="M198.305768,103.204672 C197.297433,104.129144 195.616876,104.045101 194.69257,103.036586 C194.69257,103.036586 194.104374,102.364243 192.339789,101.439771 C190.575204,100.515299 188.726591,100.011042 186.625894,100.011042 C184.777281,100.011042 183.180752,100.347214 181.66825,101.1036 C180.155748,101.859986 179.399498,103.120629 179.399498,104.88553 C179.399498,106.650431 180.239776,107.827031 181.920334,108.583417 C183.600891,109.339803 185.953671,110.012146 189.14673,110.768532 C190.827288,111.104704 192.507845,111.608961 194.27243,112.281304 C195.952988,112.869605 197.549517,113.710034 198.977991,114.802591 C200.406465,115.811106 201.498827,117.071749 202.423133,118.668564 C203.263412,120.181336 203.767579,122.03028 203.767579,124.215395 C203.767579,126.988811 203.263412,129.257969 202.255078,131.190955 C201.246743,133.123942 199.818269,134.636714 198.137712,135.813314 C196.457155,136.989915 194.440486,137.830344 192.171734,138.418644 C189.902981,138.922901 187.550201,139.17503 185.113393,139.17503 C181.584222,139.17503 178.223107,138.502687 174.946021,137.242044 C171.668934,135.9814 168.896014,134.132457 166.71129,131.779256 L172.257129,126.568596 C173.265463,125.644124 174.861993,125.644124 175.870327,126.652639 C175.870327,126.652639 176.962689,127.82924 178.979358,128.837754 C180.996027,129.930312 183.180752,130.434569 185.61756,130.434569 C186.457839,130.434569 187.214089,130.350526 188.138396,130.182441 C188.978675,130.014355 189.734925,129.678183 190.491176,129.257969 C191.247427,128.837754 191.751594,128.333497 192.255761,127.661154 C192.675901,126.988811 192.927984,126.148382 192.927984,125.139867 C192.927984,123.290923 192.087706,121.946237 190.32312,121.105808 C188.642563,120.265379 186.037699,119.508993 182.592557,118.668564 C180.911999,118.332393 179.231442,117.828135 177.71894,117.239835 C176.122411,116.651535 174.693937,115.895149 173.433519,114.886634 C172.173101,113.962162 171.164767,112.701519 170.408516,111.27279 C169.652265,109.844061 169.316154,108.07916 169.316154,105.978088 C169.316154,103.456801 169.820321,101.355728 170.828655,99.5067848 C171.83699,97.6578411 173.181435,96.229112 174.861993,95.0525115 C176.54255,93.875911 178.475191,93.0354821 180.575888,92.4471818 C182.676584,91.8588816 184.861309,91.6067529 187.130061,91.6067529 C190.407148,91.6067529 193.516179,92.1950531 196.625211,93.2876107 C199.734242,94.3801683 202.17105,96.1450691 203.935635,98.4142272 L198.305768,103.204672 L198.305768,103.204672 Z" id="Shape"></path>
                    <path d="M212.926617,131.190955 C212.926617,129.173926 213.682868,127.493068 215.111341,126.064339 C216.539815,124.63561 218.3044,123.879224 220.405097,123.879224 C222.421766,123.879224 224.186351,124.551567 225.614825,125.896253 C227.127327,127.240939 227.883577,128.921797 227.883577,130.938827 C227.883577,132.955856 227.127327,134.636714 225.698853,136.065443 C224.270379,137.494172 222.505794,138.250558 220.405097,138.250558 C219.396763,138.250558 218.472456,138.082472 217.54815,137.662258 C216.623843,137.326086 215.867592,136.821829 215.195369,136.149486 C214.523146,135.561186 213.934951,134.8048 213.59884,133.880328 C213.1787,133.207985 212.926617,132.19947 212.926617,131.190955 L212.926617,131.190955 Z" id="Shape"></path>
                </g>
            </g>
            <g id="MakeBotsLogo" transform="translate(531.124498, 0.000000)">
                <g id="Desktop">
                    <g id="MacBook-Pro-13&quot;-Copy">
                        <g id="Section-1">
                            <g id="MakeBots-">
                                <g id="Group-3" transform="translate(0.000000, 0.013350)">
                                    <g id="Fill-1-Clipped">
                                        <mask id="mask-2" fill="white">
                                            <use xlink:href="#path-1"></use>
                                        </mask>
                                        <g id="path-2"></g>
                                        <path d="M128.571216,410.537328 C121.216552,410.537328 112.19026,405.363056 108.512508,399.03978 L2.7578097,217.17675 C-0.919942249,210.853474 -0.919942249,200.505764 2.7578097,194.181653 L108.512508,12.3186231 C112.19026,5.99534696 121.216552,0.821074657 128.571216,0.821074657 L340.080613,0.821074657 C347.435276,0.821074657 356.461569,5.99534696 360.138481,12.3186231 L465.894019,194.181653 C469.571771,200.505764 469.571771,210.853474 465.894019,217.17675 L360.139321,399.03978 C356.461569,405.363056 347.435276,410.537328 340.080613,410.537328 L128.571216,410.537328 L128.571216,410.537328 Z" id="Fill-1" fill="#00569C" mask="url(#mask-2)"></path>
                                    </g>
                                </g>
                                <path d="M163.951678,253.19631 C163.951678,251.462374 163.685259,249.742623 163.155783,248.037893 C162.624628,246.33483 161.829574,244.801156 160.768943,243.438539 C159.706631,242.075923 158.366134,240.975315 156.74409,240.139221 C155.120366,239.302292 153.217616,238.884245 151.034162,238.884245 C148.975091,238.884245 147.132853,239.318147 145.511651,240.185114 C143.887927,241.052917 142.499525,242.168543 141.345605,243.531161 C140.190844,244.894611 139.31679,246.443305 138.724282,248.177241 C138.130934,249.912846 137.835941,251.648451 137.835941,253.382388 C137.835941,255.117158 138.130934,256.836074 138.724282,258.539971 C139.31679,260.244703 140.190844,261.778377 141.345605,263.140159 C142.499525,264.504445 143.887927,265.603383 145.511651,266.439477 C147.132853,267.275571 148.975091,267.694453 151.034162,267.694453 C153.217616,267.694453 155.120366,267.261387 156.74409,266.392749 C158.366134,265.525781 159.706631,264.410155 160.768943,263.047537 C161.829574,261.685755 162.624628,260.135393 163.155783,258.400622 C163.685259,256.666686 163.951678,254.931081 163.951678,253.19631 L163.951678,253.19631 L163.951678,253.19631 Z M135.688624,205.427121 C137.075345,205.427121 138.209935,206.553596 138.209935,207.930398 L138.209935,234.243171 C138.209935,235.620807 138.272968,236.746447 138.350288,236.746447 C138.427608,236.746447 139.06634,236.063887 139.768946,235.229462 L140.64384,234.423407 C141.517054,233.618186 142.562557,232.874713 143.77951,232.192153 C144.995622,231.512096 146.41512,230.938011 148.038004,230.47407 C149.660047,230.008461 151.502285,229.776491 153.561355,229.776491 C156.74409,229.776491 159.676374,230.380615 162.35989,231.588029 C165.042564,232.797111 167.352085,234.455114 169.286771,236.56037 C171.219776,238.668129 172.718275,241.147207 173.779747,243.995936 C174.840378,246.846332 175.371534,249.912846 175.371534,253.19631 C175.371534,256.481444 174.856346,259.562143 173.826811,262.443414 C172.796436,265.32385 171.329872,267.833802 169.427123,269.9716 C167.522694,272.108563 165.214854,273.813295 162.500243,275.082456 C159.785632,276.351617 156.711313,276.988284 153.28065,276.988284 C150.097915,276.988284 147.116886,276.30489 144.340923,274.943107 C141.563278,273.581324 139.39411,271.597896 137.835941,268.995322 C137.732566,268.995322 137.647683,270.120962 137.647683,271.498598 L137.647683,273.183303 C137.647683,274.56094 136.513933,275.68658 135.126371,275.68658 L129.498806,275.68658 C128.111245,275.68658 126.977496,274.56094 126.977496,273.183303 L126.977496,207.930398 C126.977496,206.553596 128.111245,205.427121 129.498806,205.427121 L135.688624,205.427121 L135.688624,205.427121 Z" id="Fill-4" fill="#FFFFFF"></path>
                                <path d="M193.346463,253.19631 C193.346463,254.931081 193.6112,256.666686 194.142356,258.400622 C194.671831,260.135393 195.466885,261.685755 196.529197,263.047537 C197.589828,264.410155 198.931166,265.525781 200.554049,266.392749 C202.176093,267.261387 204.111619,267.694453 206.357266,267.694453 C208.604594,267.694453 210.537599,267.261387 212.161324,266.392749 C213.783367,265.525781 215.124705,264.410155 216.187017,263.047537 C217.246807,261.685755 218.042702,260.135393 218.573857,258.400622 C219.102492,256.666686 219.368911,254.931081 219.368911,253.19631 C219.368911,251.462374 219.102492,249.742623 218.573857,248.037893 C218.042702,246.33483 217.246807,244.801156 216.187017,243.438539 C215.124705,242.075923 213.783367,240.975315 212.161324,240.139221 C210.537599,239.302292 208.604594,238.884245 206.357266,238.884245 C204.111619,238.884245 202.176093,239.302292 200.554049,240.139221 C198.931166,240.975315 197.589828,242.075923 196.529197,243.438539 C195.466885,244.801156 194.671831,246.33483 194.142356,248.037893 C193.6112,249.742623 193.346463,251.462374 193.346463,253.19631 M181.926605,253.19631 C181.926605,249.665022 182.566179,246.458325 183.845323,243.577889 C185.124468,240.696617 186.855768,238.233394 189.040905,236.18905 C191.2252,234.144708 193.815427,232.564306 196.809904,231.449514 C199.806061,230.333888 202.988795,229.776491 206.357266,229.776491 C209.727419,229.776491 212.910154,230.333888 215.90547,231.449514 C218.900787,232.564306 221.489333,234.144708 223.675309,236.18905 C225.858765,238.233394 227.590065,240.696617 228.87005,243.577889 C230.148354,246.458325 230.788768,249.665022 230.788768,253.19631 C230.788768,256.727599 230.148354,259.950151 228.87005,262.861461 C227.590065,265.77444 225.858765,268.267703 223.675309,270.34292 C221.489333,272.41897 218.900787,274.045265 215.90547,275.221805 C212.910154,276.398345 209.727419,276.988284 206.357266,276.988284 C202.988795,276.988284 199.806061,276.398345 196.809904,275.221805 C193.815427,274.045265 191.2252,272.41897 189.040905,270.34292 C186.855768,268.267703 185.124468,265.77444 183.845323,262.861461 C182.566179,259.950151 181.926605,256.727599 181.926605,253.19631" id="Fill-6" fill="#FFFFFF"></path>
                                <path d="M237.708253,239.999455 C236.321532,239.999455 235.186942,238.87298 235.186942,237.496178 L235.186942,233.581054 C235.186942,232.203418 236.321532,231.077777 237.708253,231.077777 L240.527919,231.077777 C241.91548,231.077777 243.04923,229.951303 243.04923,228.574501 L243.04923,220.662479 C243.04923,219.285677 244.183819,218.159203 245.57054,218.159203 L251.573781,218.159203 C252.960502,218.159203 254.095092,219.285677 254.095092,220.662479 L254.095092,228.574501 C254.095092,229.951303 255.229682,231.077777 256.616403,231.077777 L262.806221,231.077777 C264.193782,231.077777 265.327531,232.203418 265.327531,233.581054 L265.327531,237.496178 C265.327531,238.87298 264.193782,239.999455 262.806221,239.999455 L256.616403,239.999455 C255.229682,239.999455 254.095092,241.125929 254.095092,242.502731 L254.095092,258.220803 C254.095092,259.597605 254.206029,261.845547 254.34134,263.214839 C254.34134,263.214839 254.453959,264.348824 255.171692,265.649694 C255.888584,266.950562 257.49634,267.601415 259.992438,267.601415 C260.741267,267.601415 261.551448,267.523813 262.426343,267.369444 C263.299557,267.215075 264.078642,266.982271 264.766119,266.671864 L265.033379,272.907526 C265.092209,274.28266 264.157644,275.707023 262.955818,276.072502 L261.583385,276.290287 C260.21011,276.507238 258.899869,276.616547 257.651821,276.616547 C254.657344,276.616547 252.223439,276.197666 250.350946,275.361571 C248.478452,274.524643 246.995922,273.378977 245.905034,271.922904 C244.812466,270.467666 244.063637,268.794643 243.658546,266.903834 C243.251775,265.014696 243.04923,262.986207 243.04923,260.816701 L243.04923,242.502731 C243.04923,241.125929 241.91548,239.999455 240.527919,239.999455 L237.708253,239.999455 L237.708253,239.999455 Z" id="Fill-8" fill="#FFFFFF"></path>
                                <path d="M304.180678,241.314676 C303.141898,242.226703 301.502206,242.164121 300.537384,241.175327 C300.537384,241.175327 299.919663,240.541998 298.174075,239.58074 C296.425126,238.621151 294.523217,238.140521 292.464147,238.140521 C290.652165,238.140521 289.000706,238.512676 287.502207,239.255314 C286.004548,239.999621 285.255719,241.239577 285.255719,242.97268 C285.255719,244.708284 286.082709,245.932387 287.736689,246.644152 C289.388988,247.356751 291.807765,248.084369 294.9905,248.827843 C296.675576,249.199997 298.37578,249.69648 300.092792,250.314789 C301.808124,250.934767 303.367975,251.755841 304.772345,252.778013 C306.176716,253.800184 307.314667,255.07018 308.189562,256.588834 C309.062776,258.107489 309.499803,259.9499 309.499803,262.118571 C309.499803,264.84464 308.984615,267.152661 307.95508,269.0418 C306.925545,270.932607 305.552271,272.465448 303.836939,273.641987 C302.119927,274.819361 300.123048,275.672145 297.845464,276.197832 C295.56704,276.72352 293.212136,276.988033 290.77907,276.988033 C287.283694,276.988033 283.882446,276.351366 280.575326,275.08304 C277.267366,273.813044 274.521659,272.000673 272.338204,269.645924 L277.893492,264.479996 C278.905378,263.538764 280.522379,263.577982 281.4872,264.566776 C281.4872,264.566776 282.60246,265.711607 284.600179,266.764653 C286.597056,267.819366 288.813289,268.345054 291.246353,268.345054 C292.056535,268.345054 292.885206,268.251598 293.727323,268.066356 C294.569441,267.880279 295.349366,267.586561 296.067099,267.1827 C296.783993,266.781341 297.362213,266.238965 297.7984,265.557239 C298.234586,264.875513 298.454781,264.038584 298.454781,263.047287 C298.454781,261.188188 297.595854,259.857279 295.879683,259.051224 C294.16267,258.246837 291.589252,257.440782 288.157748,256.634728 C286.472672,256.263409 284.83382,255.783613 283.243713,255.194509 C281.651926,254.606239 280.231587,253.831893 278.98438,252.871469 C277.73465,251.911045 276.737892,250.719485 275.989062,249.293452 C275.239393,247.868254 274.865398,246.102609 274.865398,243.995685 C274.865398,241.518276 275.379745,239.381312 276.41012,237.582291 C277.439656,235.786607 278.796962,234.315515 280.482037,233.16818 C282.167113,232.022514 284.069022,231.170565 286.191966,230.61317 C288.312389,230.054939 290.497524,229.776241 292.744852,229.776241 C295.988098,229.776241 299.155706,230.333637 302.245152,231.449264 C305.333757,232.564891 307.78279,234.269621 309.593091,236.560954 L304.180678,241.314676 L304.180678,241.314676 Z" id="Fill-10" fill="#FFFFFF"></path>
                                <path d="M318.854707,269.180732 C318.854707,267.198971 319.586727,265.495909 321.05413,264.069876 C322.519011,262.645511 324.283088,261.932077 326.342999,261.932077 C328.339037,261.932077 330.087146,262.614638 331.583964,263.977254 C333.082463,265.339871 333.831292,267.012895 333.831292,268.994655 C333.831292,270.978919 333.09675,272.681981 331.631028,274.106345 C330.164466,275.532379 328.402069,276.244144 326.342999,276.244144 C325.34372,276.244144 324.391505,276.058066 323.488035,275.686747 C322.582885,275.315428 321.786151,274.819779 321.101194,274.199801 C320.412877,273.580657 319.867433,272.838018 319.463183,271.969382 C319.055571,271.102414 318.854707,270.172863 318.854707,269.180732" id="Fill-12" fill="#FFFFFF"></path>
                                <path d="M180.554425,154.6787 C183.487549,154.6787 185.998775,155.189368 188.090622,156.212373 C190.179949,157.234545 191.89528,158.582143 193.238298,160.255166 C194.578795,161.928189 195.562106,163.849036 196.186551,166.016873 C196.810156,168.185545 197.122798,170.416798 197.122798,172.708131 L197.122798,198.085512 C197.122798,199.462314 195.987367,200.588789 194.601487,200.588789 L188.41167,200.588789 C187.024948,200.588789 185.890358,199.462314 185.890358,198.085512 L185.890358,178.371377 C185.890358,176.994574 185.850857,174.74246 185.802112,173.366493 C185.802112,173.366493 185.79623,173.204614 185.609653,171.778581 C185.422235,170.354217 185.016304,169.069202 184.391859,167.921866 C183.768255,166.7762 182.910169,165.830796 181.818442,165.088158 C180.725873,164.34385 179.275279,163.972531 177.464978,163.972531 C175.71771,163.972531 174.220051,164.34385 172.972843,165.088158 C171.723113,165.830796 170.694419,166.792889 169.883397,167.968594 C169.072376,169.145969 168.479867,170.462692 168.105032,171.91793 C167.731038,173.374837 167.544461,174.815055 167.544461,176.240254 L167.544461,198.085512 C167.544461,199.462314 166.409031,200.588789 165.023151,200.588789 L158.832492,200.588789 C157.445771,200.588789 156.311181,199.462314 156.311181,198.085512 L156.311181,176.140957 C156.311181,174.763321 156.164104,172.520386 155.984251,171.155265 C155.984251,171.155265 155.639672,168.541844 154.298334,166.714453 C152.956157,164.887061 150.849182,163.972531 147.97993,163.972531 C146.294854,163.972531 144.827451,164.32883 143.580243,165.040595 C142.331353,165.754029 141.317786,166.666891 140.538702,167.782517 C139.757095,168.898145 139.164587,170.183994 138.760337,171.639232 C138.353565,173.096139 138.15186,174.566397 138.15186,176.054177 L138.15186,198.085512 C138.15186,199.462314 137.016431,200.588789 135.63055,200.588789 L129.440732,200.588789 C128.053171,200.588789 126.919422,199.462314 126.919422,198.085512 L126.919422,158.482845 C126.919422,157.106043 128.053171,155.979569 129.440732,155.979569 L135.069139,155.979569 C136.455019,155.979569 137.590449,157.106043 137.590449,158.482845 L137.590449,160.632325 C137.590449,162.009128 137.632471,163.135602 137.683737,163.135602 C137.735004,163.135602 138.30398,162.160993 138.946914,160.967765 L139.789872,159.975633 C140.63199,158.986004 141.630429,158.086494 142.78519,157.280439 C143.939109,156.476052 145.26616,155.841054 146.762977,155.375445 C148.260636,154.910671 149.912935,154.6787 151.724076,154.6787 C155.218613,154.6787 158.120642,155.454716 160.430163,157.00174 C162.738002,158.551268 164.515526,160.596446 165.764416,163.135602 C167.262915,160.410368 169.259793,158.319298 171.755891,156.862392 C174.251148,155.407154 177.184272,154.6787 180.554425,154.6787" id="Fill-14" fill="#FFFFFF"></path>
                                <path d="M237.094313,181.815468 C237.094313,180.94683 236.525338,180.235901 235.830296,180.235901 C235.135255,180.235901 233.43337,180.260098 232.045809,180.289303 C232.045809,180.289303 230.853229,180.314336 228.856351,180.46787 C226.858633,180.623908 225.018916,180.964353 223.334681,181.490042 C221.648764,182.017399 220.245235,182.760871 219.122411,183.720461 C217.997907,184.682553 217.436494,185.997608 217.436494,187.671466 C217.436494,188.725345 217.671816,189.608167 218.139099,190.319097 C218.607223,191.032531 219.21654,191.605781 219.964528,192.038848 C220.713357,192.471916 221.555476,192.782321 222.491722,192.967564 C223.427969,193.153641 224.364216,193.246262 225.299622,193.246262 C229.168154,193.246262 232.101278,192.224926 234.099837,190.179748 C236.095874,188.135406 237.094313,185.346756 237.094313,181.815468 L237.094313,181.815468 L237.094313,181.815468 Z M237.281731,197.423396 C237.281731,196.046594 237.217858,194.920119 237.141379,194.920119 C237.064058,194.920119 236.288334,195.7971 235.417643,196.867669 C235.417643,196.867669 234.06622,198.529844 231.571803,199.799005 C229.074864,201.067332 226.235868,201.703999 223.053975,201.703999 C221.243674,201.703999 219.356052,201.472028 217.39111,201.007253 C215.424488,200.542478 213.614187,199.768966 211.961048,198.683379 C210.307068,197.600294 208.933794,196.174261 207.842066,194.408616 C206.750339,192.642973 206.204055,190.458447 206.204055,187.856708 C206.204055,184.510662 207.154589,181.84801 209.059859,179.864581 C210.962608,177.881986 213.411642,176.364166 216.407799,175.310287 C219.403116,174.257242 222.725363,173.560497 226.376222,173.219217 C230.027079,172.879605 233.598937,172.708548 237.094313,172.708548 C237.094313,172.095245 236.864034,170.490646 236.581648,169.142214 C236.581648,169.142214 236.079066,166.74491 234.051932,165.412332 C232.023117,164.080588 229.606021,163.413883 226.798121,163.413883 C224.425567,163.413883 222.147984,163.911201 219.964528,164.901664 C217.780233,165.892961 215.969932,167.101209 214.535306,168.525573 L210.363378,163.649191 C209.466631,162.600318 209.63808,161.064141 210.745776,160.235556 C210.745776,160.235556 214.238632,157.622136 217.577688,156.443927 C220.915062,155.269056 224.301183,154.679117 227.733527,154.679117 C231.726443,154.679117 235.018435,155.235679 237.608662,156.350471 C240.197207,157.466933 242.24283,158.922171 243.740489,160.719523 C245.238148,162.516876 246.28281,164.52951 246.876159,166.759929 C247.468667,168.991183 247.765341,171.220767 247.765341,173.452021 L247.765341,198.085095 C247.765341,199.461898 246.631592,200.588371 245.24403,200.588371 L239.803042,200.588371 C238.416321,200.588371 237.281731,199.461898 237.281731,198.085095 L237.281731,197.423396 L237.281731,197.423396 Z" id="Fill-16" fill="#FFFFFF"></path>
                                <path d="M259.375725,132.832023 C259.375725,131.456055 260.510315,130.328746 261.897036,130.328746 L268.086853,130.328746 C269.474415,130.328746 270.608165,131.456055 270.608165,132.832023 L270.608165,172.248612 C270.608165,173.626249 270.671198,174.75189 270.748517,174.75189 C270.825837,174.75189 271.648626,173.915795 272.576468,172.892789 L286.23777,157.839754 C287.165612,156.816748 289.059116,155.978985 290.446678,155.978985 L299.819231,155.978985 C301.205952,155.978985 301.555573,156.79255 300.595794,157.78635 L284.614887,174.339683 C283.655948,175.334318 283.599639,177.00901 284.492183,178.063724 L301.935451,198.671529 C302.827155,199.726243 302.422904,200.588205 301.035342,200.588205 L291.194667,200.588205 C289.807946,200.588205 287.979996,199.697038 287.131995,198.607279 L272.430232,179.708377 C271.582231,178.617782 270.825837,177.726616 270.748517,177.726616 C270.671198,177.726616 270.608165,178.852256 270.608165,180.229893 L270.608165,198.084929 C270.608165,199.462565 269.474415,200.588205 268.086853,200.588205 L261.897036,200.588205 C260.510315,200.588205 259.375725,199.462565 259.375725,198.084929 L259.375725,132.832023 L259.375725,132.832023 Z" id="Fill-18" fill="#FFFFFF"></path>
                                <path d="M337.452651,173.823174 C338.839371,173.823174 339.891598,172.699203 339.791586,171.326572 C339.791586,171.326572 339.770576,171.034524 339.364645,169.734489 C338.958714,168.432785 338.319142,167.287119 337.445928,166.295821 C336.571872,165.304524 335.465017,164.515992 334.122839,163.926053 C332.779821,163.337783 331.204842,163.042397 329.396223,163.042397 C326.02607,163.042397 323.171947,164.050383 320.83133,166.063017 C318.490713,168.076486 317.194759,170.663205 316.94683,173.823174 L337.452651,173.823174 L337.452651,173.823174 Z M351.206401,178.842243 L351.206401,180.329189 C351.206401,180.825672 351.173623,181.319652 351.112272,181.815301 L319.468142,181.815301 C318.08058,181.815301 317.142653,182.925086 317.383017,184.281028 C317.383017,184.281028 317.492274,184.898503 318.210007,186.230246 C318.9269,187.563658 319.879114,188.709324 321.064972,189.668914 C322.249988,190.631006 323.593006,191.388664 325.090665,191.94606 C326.587482,192.503457 328.147333,192.782155 329.770217,192.782155 C332.578957,192.782155 334.948989,192.270652 336.884515,191.248481 C338.81836,190.226309 340.410149,188.818634 341.658197,187.019612 L347.177346,191.404518 C348.26067,192.264811 348.272436,193.686672 347.20424,194.563653 C347.20424,194.563653 341.166541,201.889909 329.864346,201.889909 C326.368969,201.889909 323.155138,201.345863 320.222853,200.263613 C317.288889,199.180529 314.746566,197.646855 312.594208,195.663426 C310.441008,193.681666 308.755933,191.248481 307.53898,188.368044 C306.322867,185.487607 305.71355,182.219997 305.71355,178.56271 C305.71355,174.970509 306.322867,171.70123 307.53898,168.758211 C308.755933,165.816027 310.42504,163.306075 312.547144,161.230024 C314.668406,159.155643 317.180472,157.545202 320.082501,156.397866 C322.983689,155.252201 326.1202,154.67895 329.489511,154.67895 C332.609213,154.67895 335.495273,155.189618 338.148532,156.212624 C340.799271,157.233961 343.093664,158.752615 345.028349,160.766084 C346.961354,162.780388 348.474981,165.28867 349.56839,168.293436 C350.659276,171.299871 351.206401,174.814471 351.206401,178.842243 L351.206401,178.842243 L351.206401,178.842243 Z" id="Fill-20" fill="#FFFFFF"></path>
                            </g>
                        </g>
                    </g>
                </g>
            </g>
        </g>
    </g>
</svg>