<?xml version="1.0" encoding="UTF-8" standalone="no"?>
<svg width="2259px" height="2057px" viewBox="0 0 2259 2057" version="1.1" xmlns="http://www.w3.org/2000/svg" xmlns:xlink="http://www.w3.org/1999/xlink">
    <!-- Generator: Sketch 40.3 (33839) - http://www.bohemiancoding.com/sketch -->
    <title>Group 11</title>
    <desc>Created with Sketch.</desc>
    <defs>
        <rect id="path-1" x="1655" y="40" width="533" height="947" rx="50"></rect>
        <mask id="mask-2" maskContentUnits="userSpaceOnUse" maskUnits="objectBoundingBox" x="0" y="0" width="533" height="947" fill="white">
            <use xlink:href="#path-1"></use>
        </mask>
        <path d="M1074.03824,1284.79073 L1074.03824,1864.75094 C1074.03824,1889.48817 1055.93086,1909.54166 1033.60152,1909.54166 L40.4367135,1909.54166 C18.1041333,1909.54166 0,1889.48085 0,1864.75094 L0,1284.79073 C0,1260.05349 18.1073758,1240 40.4367135,1240 L1033.60152,1240 C1055.9341,1240 1074.03824,1260.06081 1074.03824,1284.79073 Z" id="path-3"></path>
        <mask id="mask-4" maskContentUnits="userSpaceOnUse" maskUnits="objectBoundingBox" x="0" y="0" width="1074.03824" height="669.541665" fill="white">
            <use xlink:href="#path-3"></use>
        </mask>
        <rect id="path-5" x="1946" y="84" width="100" height="30" rx="15"></rect>
        <mask id="mask-6" maskContentUnits="userSpaceOnUse" maskUnits="objectBoundingBox" x="0" y="0" width="100" height="30" fill="white">
            <use xlink:href="#path-5"></use>
        </mask>
    </defs>
    <g id="Desktop" stroke="none" stroke-width="1" fill="none" fill-rule="evenodd">
        <g id="MacBook-Pro-13&quot;" transform="translate(-206.000000, -2609.000000)" stroke="#B2D8F7">
            <g id="Section-3---PWAs" transform="translate(-331.000000, 2052.000000)">
                <g id="Group-11" transform="translate(537.000000, 549.000000)">
                    <use id="Rectangle-3" mask="url(#mask-2)" stroke-width="20" fill-opacity="0.800000012" fill="#FFFFFF" transform="translate(1921.500000, 513.500000) rotate(10.000000) translate(-1921.500000, -513.500000) " xlink:href="#path-1"></use>
                    <use id="Rectangle-3" mask="url(#mask-4)" stroke-width="20" fill-opacity="0.800000012" fill="#FFFFFF" xlink:href="#path-3"></use>
                    <path d="M2114.29666,911.474501 L1602.19662,821.177448" id="Line" stroke-width="10" stroke-linecap="square"></path>
                    <circle id="Oval" stroke-width="10" cx="1852.5" cy="921.5" r="32.5"></circle>
                    <circle id="Oval" stroke-width="10" cx="537.5" cy="1861.5" r="22.5"></circle>
                    <use id="Rectangle-3" mask="url(#mask-6)" stroke-width="20" transform="translate(1996.000000, 99.000000) rotate(10.000000) translate(-1996.000000, -99.000000) " xlink:href="#path-5"></use>
                    <path d="M1068,1819 L8,1819" id="Line" stroke-width="10" stroke-linecap="square"></path>
                    <path d="M2241.10003,187.297052 L1729,97" id="Line" stroke-width="10" stroke-linecap="square"></path>
                    <g id="Computer-Stand" transform="translate(302.000000, 1908.000000)" stroke-width="10">
                        <path d="M151,0 C151,0 170,120.186047 49,120.186047 C-0.0213837569,120.186047 5.68434189e-14,121.069767 5.68434189e-14,121.069767 L5.68434189e-14,152 L249.018072,152" id="Path-4"></path>
                        <path d="M364,0 C364,0 383,120.186047 262,120.186047 C212.978616,120.186047 213,121.069767 213,121.069767 L213,152 L462.018072,152" id="Path-4" transform="translate(337.509036, 76.000000) scale(-1, 1) translate(-337.509036, -76.000000) "></path>
                    </g>
                </g>
            </g>
        </g>
    </g>
</svg>